<?xml version="1.0" encoding="UTF-8" standalone="no"?><!DOCTYPE svg PUBLIC "-//W3C//DTD SVG 1.1//EN" "http://www.w3.org/Graphics/SVG/1.1/DTD/svg11.dtd"><svg width="100%" height="100%" viewBox="0 0 46 46" version="1.1" xmlns="http://www.w3.org/2000/svg" xmlns:xlink="http://www.w3.org/1999/xlink" xml:space="preserve" xmlns:serif="http://www.serif.com/" style="fill-rule:evenodd;clip-rule:evenodd;stroke-linejoin:round;stroke-miterlimit:1.41421;"><path d="M22.647,32.848c-5.624,0 -10.2,-4.575 -10.2,-10.199c0,-5.624 4.576,-10.2 10.2,-10.2c5.625,0 10.2,4.576 10.2,10.2c0,5.624 -4.575,10.199 -10.2,10.199m21.398,-11.449l-8.761,0c-0.252,-2.565 -1.269,-4.909 -2.821,-6.798l4.456,-4.457c0.488,-0.488 0.488,-1.279 0,-1.768c-0.488,-0.488 -1.279,-0.488 -1.768,0l-4.456,4.457c-1.889,-1.552 -4.233,-2.569 -6.798,-2.821l0,-8.762c0,-0.69 -0.56,-1.25 -1.25,-1.25c-0.69,0 -1.25,0.56 -1.25,1.25l0,8.762c-2.565,0.252 -4.908,1.269 -6.798,2.821l-4.456,-4.457c-0.489,-0.488 -1.28,-0.488 -1.768,0c-0.488,0.489 -0.488,1.28 0,1.768l4.457,4.457c-1.552,1.889 -2.57,4.233 -2.821,6.798l-8.761,0c-0.691,0 -1.25,0.559 -1.25,1.25c0,0.69 0.559,1.25 1.25,1.25l8.761,0c0.251,2.565 1.269,4.908 2.821,6.797l-4.457,4.457c-0.488,0.488 -0.488,1.279 0,1.767c0.244,0.244 0.564,0.366 0.884,0.366c0.32,0 0.639,-0.122 0.884,-0.366l4.456,-4.456c1.89,1.552 4.233,2.569 6.798,2.821l0,8.761c0,0.691 0.56,1.25 1.25,1.25c0.69,0 1.25,-0.559 1.25,-1.25l0,-8.761c2.565,-0.252 4.909,-1.269 6.798,-2.821l4.456,4.456c0.245,0.244 0.564,0.366 0.884,0.366c0.32,0 0.64,-0.122 0.884,-0.366c0.488,-0.488 0.488,-1.279 0,-1.767l-4.456,-4.457c1.552,-1.889 2.569,-4.232 2.821,-6.797l8.761,0c0.69,0 1.25,-0.56 1.25,-1.25c0,-0.691 -0.56,-1.25 -1.25,-1.25" style="fill-rule:nonzero;"/></svg>