<?xml version="1.0" encoding="UTF-8" standalone="no"?><!DOCTYPE svg PUBLIC "-//W3C//DTD SVG 1.1//EN" "http://www.w3.org/Graphics/SVG/1.1/DTD/svg11.dtd"><svg width="100%" height="100%" viewBox="0 0 48 31" version="1.1" xmlns="http://www.w3.org/2000/svg" xmlns:xlink="http://www.w3.org/1999/xlink" xml:space="preserve" xmlns:serif="http://www.serif.com/" style="fill-rule:evenodd;clip-rule:evenodd;stroke-linejoin:round;stroke-miterlimit:1.41421;"><path d="M38.999,27.556l-30.645,0c-3.228,0 -5.854,-2.626 -5.854,-5.854c0,-3.229 2.626,-5.855 5.854,-5.855l2.943,0l-0.523,-1.632c-0.285,-0.889 -0.429,-1.811 -0.429,-2.739c0,-4.949 4.026,-8.976 8.975,-8.976c3.326,0 6.365,1.828 7.929,4.773l0.685,1.289l1.169,-0.876c1.135,-0.851 2.479,-1.301 3.885,-1.301c3.581,0 6.494,2.914 6.494,6.495c0,0.511 -0.067,1.04 -0.201,1.574l-0.313,1.254l1.264,0.272c2.678,0.574 4.621,2.98 4.621,5.722c0,3.228 -2.625,5.854 -5.854,5.854m2.925,-13.679c0.039,-0.335 0.058,-0.668 0.058,-0.997c0,-4.96 -4.035,-8.995 -8.994,-8.995c-1.493,0 -2.933,0.364 -4.232,1.064c-2.129,-3.082 -5.635,-4.949 -9.436,-4.949c-6.328,0 -11.475,5.148 -11.475,11.476c0,0.63 0.051,1.258 0.155,1.879c-4.443,0.185 -8,3.858 -8,8.347c0,4.606 3.748,8.354 8.354,8.354l30.645,0c4.606,0 8.354,-3.748 8.354,-8.354c0,-3.501 -2.222,-6.621 -5.429,-7.825" style="fill-rule:nonzero;"/></svg>