<?xml version="1.0" encoding="UTF-8" standalone="no"?><!DOCTYPE svg PUBLIC "-//W3C//DTD SVG 1.1//EN" "http://www.w3.org/Graphics/SVG/1.1/DTD/svg11.dtd"><svg width="100%" height="100%" viewBox="0 0 52 29" version="1.1" xmlns="http://www.w3.org/2000/svg" xmlns:xlink="http://www.w3.org/1999/xlink" xml:space="preserve" xmlns:serif="http://www.serif.com/" style="fill-rule:evenodd;clip-rule:evenodd;stroke-linejoin:round;stroke-miterlimit:1.41421;"><path d="M50.797,20.313c0,-0.707 -0.961,-1.281 -2.145,-1.281l-46.507,0c-1.184,0 -2.145,0.574 -2.145,1.281c0,0.707 0.961,1.281 2.145,1.281l46.507,0c1.184,0 2.145,-0.574 2.145,-1.281" style="fill-rule:nonzero;"/><path d="M47.252,26.893c0,-0.707 -0.827,-1.281 -1.845,-1.281l-40.017,0c-1.019,0 -1.845,0.574 -1.845,1.281c0,0.707 0.826,1.281 1.845,1.281l40.017,0c1.018,0 1.845,-0.574 1.845,-1.281" style="fill-rule:nonzero;"/><path d="M51.964,1.281c0,-0.707 -0.96,-1.281 -2.144,-1.281l-46.508,0c-1.184,0 -2.144,0.574 -2.144,1.281c0,0.707 0.96,1.281 2.144,1.281l46.508,0c1.184,0 2.144,-0.574 2.144,-1.281" style="fill-rule:nonzero;"/><path d="M48.42,7.861c0,-0.707 -0.827,-1.281 -1.846,-1.281l-35.976,0c-1.019,0 -1.846,0.574 -1.846,1.281c0,0.707 0.827,1.281 1.846,1.281l35.976,0c1.019,0 1.846,-0.574 1.846,-1.281" style="fill-rule:nonzero;"/><path d="M43.357,13.992c0,-0.707 -0.96,-1.281 -2.144,-1.281l-37.901,0c-1.184,0 -2.144,0.574 -2.144,1.281c0,0.707 0.96,1.281 2.144,1.281l37.901,0c1.184,0 2.144,-0.574 2.144,-1.281" style="fill-rule:nonzero;"/></svg>