<?xml version="1.0" encoding="UTF-8" standalone="no"?><!DOCTYPE svg PUBLIC "-//W3C//DTD SVG 1.1//EN" "http://www.w3.org/Graphics/SVG/1.1/DTD/svg11.dtd"><svg width="100%" height="100%" viewBox="0 0 49 33" version="1.1" xmlns="http://www.w3.org/2000/svg" xmlns:xlink="http://www.w3.org/1999/xlink" xml:space="preserve" xmlns:serif="http://www.serif.com/" style="fill-rule:evenodd;clip-rule:evenodd;stroke-linejoin:round;stroke-miterlimit:1.41421;"><path d="M38.999,30.45l-30.645,0c-3.228,0 -5.854,-2.626 -5.854,-5.854c0,-3.229 2.626,-5.855 5.854,-5.855l2.943,0l-0.523,-1.632c-0.285,-0.889 -0.429,-1.811 -0.429,-2.739c0,-4.949 4.027,-8.976 8.976,-8.976c3.325,0 6.364,1.829 7.929,4.773l0.686,1.289l1.167,-0.876c1.135,-0.851 2.478,-1.301 3.885,-1.301c1.549,0 2.973,0.547 4.09,1.456c0.658,0.535 1.212,1.195 1.62,1.945c0.501,0.921 0.785,1.975 0.785,3.094c0,0.515 -0.066,1.03 -0.202,1.574l-0.312,1.254l1.263,0.272c0.488,0.104 0.94,0.288 1.371,0.505c0.807,0.405 1.504,0.98 2.042,1.687c0.756,0.993 1.209,2.22 1.209,3.53c0,3.228 -2.626,5.854 -5.855,5.854m2.433,-26.7c0.807,0.415 1.549,0.954 2.199,1.603c1.671,1.671 2.591,3.892 2.591,6.254c0,2.312 -0.886,4.483 -2.488,6.141c-0.56,-0.39 -1.158,-0.732 -1.81,-0.977c0.04,-0.336 0.059,-0.669 0.059,-0.997c0,-1.958 -0.636,-3.767 -1.703,-5.246c1.138,-2.058 1.556,-4.456 1.152,-6.778m7.29,7.857c0,-3.03 -1.181,-5.879 -3.324,-8.021c-1.541,-1.542 -3.486,-2.6 -5.625,-3.06l-2.443,-0.526l1.045,2.27c0.942,2.047 0.91,4.36 0.051,6.356c-1.512,-1.154 -3.393,-1.847 -5.438,-1.847c-1.493,0 -2.933,0.364 -4.231,1.064c-2.13,-3.082 -5.636,-4.949 -9.436,-4.949c-6.328,0 -11.476,5.148 -11.476,11.476c0,0.63 0.052,1.258 0.155,1.879c-4.443,0.185 -8,3.858 -8,8.347c0,4.606 3.748,8.354 8.354,8.354l30.645,0c4.607,0 8.355,-3.748 8.355,-8.354c0,-1.913 -0.68,-3.698 -1.805,-5.133c2.043,-2.123 3.173,-4.9 3.173,-7.856" style="fill-rule:nonzero;"/></svg>