<?xml version="1.0" encoding="UTF-8" standalone="no"?><!DOCTYPE svg PUBLIC "-//W3C//DTD SVG 1.1//EN" "http://www.w3.org/Graphics/SVG/1.1/DTD/svg11.dtd"><svg width="100%" height="100%" viewBox="0 0 53 38" version="1.1" xmlns="http://www.w3.org/2000/svg" xmlns:xlink="http://www.w3.org/1999/xlink" xml:space="preserve" xmlns:serif="http://www.serif.com/" style="fill-rule:evenodd;clip-rule:evenodd;stroke-linejoin:round;stroke-miterlimit:1.41421;"><path d="M41.635,17.617c-0.975,-3.434 -3.938,-6.034 -7.564,-6.472c0.818,-1.794 2.619,-3.049 4.716,-3.049c2.862,0 5.19,2.328 5.19,5.19c0,1.81 -0.934,3.402 -2.342,4.331m3.219,11.273c0,3.228 -2.626,5.854 -5.854,5.854l-30.645,0c-3.228,0 -5.855,-2.626 -5.855,-5.854c0,-3.229 2.627,-5.856 5.855,-5.856l2.943,0l-0.523,-1.632c-0.286,-0.889 -0.43,-1.811 -0.43,-2.739c0,-4.949 4.027,-8.976 8.976,-8.976c3.326,0 6.364,1.83 7.928,4.774l0.685,1.289l1.169,-0.876c0.619,-0.464 1.303,-0.796 2.022,-1.014c0.6,-0.182 1.224,-0.287 1.863,-0.287c0.216,0 0.43,0.012 0.64,0.033c2.729,0.268 4.96,2.233 5.637,4.822c0.138,0.525 0.218,1.072 0.218,1.639c0,0.287 -0.027,0.581 -0.069,0.878c-0.034,0.231 -0.074,0.463 -0.133,0.698l-0.313,1.253l1.265,0.272c2.677,0.573 4.621,2.979 4.621,5.722m5.969,-16.854l-4.457,0c-0.195,-1.189 -0.661,-2.285 -1.337,-3.225l2.172,-2.172c0.489,-0.489 0.489,-1.28 0,-1.768c-0.488,-0.488 -1.279,-0.488 -1.767,0l-2.173,2.173c-0.94,-0.676 -2.036,-1.142 -3.224,-1.337l0,-4.457c0,-0.69 -0.56,-1.25 -1.25,-1.25c-0.691,0 -1.25,0.56 -1.25,1.25l0,4.457c-1.189,0.195 -2.285,0.661 -3.225,1.337l-2.172,-2.173c-0.488,-0.488 -1.279,-0.488 -1.768,0c-0.488,0.488 -0.488,1.279 0,1.768l2.173,2.172c-0.521,0.724 -0.918,1.541 -1.163,2.423c-0.915,0.166 -1.801,0.458 -2.625,0.902c-2.129,-3.082 -5.635,-4.949 -9.436,-4.949c-6.328,0 -11.476,5.148 -11.476,11.476c0,0.63 0.052,1.258 0.155,1.879c-4.443,0.186 -8,3.859 -8,8.348c0,4.606 3.748,8.354 8.355,8.354l30.645,0c4.606,0 8.354,-3.748 8.354,-8.354c0,-3.502 -2.222,-6.622 -5.43,-7.825c0.031,-0.265 0.04,-0.526 0.047,-0.787c0.456,-0.209 0.887,-0.46 1.291,-0.75l2.172,2.172c0.244,0.244 0.564,0.366 0.884,0.366c0.319,0 0.639,-0.122 0.883,-0.366c0.489,-0.488 0.489,-1.279 0,-1.767l-2.172,-2.173c0.676,-0.939 1.142,-2.035 1.337,-3.224l4.457,0c0.69,0 1.25,-0.56 1.25,-1.25c0,-0.69 -0.56,-1.25 -1.25,-1.25" style="fill-rule:nonzero;"/></svg>