<?xml version="1.0" encoding="UTF-8" standalone="no"?><!DOCTYPE svg PUBLIC "-//W3C//DTD SVG 1.1//EN" "http://www.w3.org/Graphics/SVG/1.1/DTD/svg11.dtd"><svg width="100%" height="100%" viewBox="0 0 26 32" version="1.1" xmlns="http://www.w3.org/2000/svg" xmlns:xlink="http://www.w3.org/1999/xlink" xml:space="preserve" xmlns:serif="http://www.serif.com/" style="fill-rule:evenodd;clip-rule:evenodd;stroke-linejoin:round;stroke-miterlimit:1.41421;"><path d="M20.211,25.822c-1.948,1.948 -4.541,3.046 -7.304,3.094c-2.763,-0.048 -5.356,-1.146 -7.304,-3.094c-2.001,-2.001 -3.103,-4.661 -3.103,-7.491c0,-2.83 1.102,-5.49 3.103,-7.491l7.304,-7.305l7.304,7.305c2.001,2.001 3.103,4.661 3.103,7.491c0,2.83 -1.102,5.49 -3.103,7.491m1.768,-16.75l-9.072,-9.072l-9.071,9.072c-2.474,2.473 -3.836,5.761 -3.836,9.259c0,3.498 1.362,6.786 3.836,9.259c2.413,2.414 5.628,3.773 9.051,3.826l0.039,0c3.424,-0.053 6.639,-1.412 9.053,-3.826c2.473,-2.473 3.835,-5.761 3.835,-9.259c0,-3.498 -1.362,-6.786 -3.835,-9.259" style="fill-rule:nonzero;"/></svg>