<?xml version="1.0" encoding="UTF-8" standalone="no"?><!DOCTYPE svg PUBLIC "-//W3C//DTD SVG 1.1//EN" "http://www.w3.org/Graphics/SVG/1.1/DTD/svg11.dtd"><svg width="100%" height="100%" viewBox="0 0 48 44" version="1.1" xmlns="http://www.w3.org/2000/svg" xmlns:xlink="http://www.w3.org/1999/xlink" xml:space="preserve" xmlns:serif="http://www.serif.com/" style="fill-rule:evenodd;clip-rule:evenodd;stroke-linejoin:round;stroke-miterlimit:1.41421;"><path d="M8.354,15.847c-3.229,0 -5.854,2.626 -5.854,5.854c0,3.229 2.625,5.855 5.854,5.855l30.645,0c3.228,0 5.855,-2.626 5.855,-5.855c0,-2.741 -1.944,-5.147 -4.622,-5.721l-1.265,-0.272l0.314,-1.254c0.134,-0.534 0.201,-1.063 0.201,-1.574c0,-3.581 -2.913,-6.495 -6.494,-6.495c-1.406,0 -2.75,0.45 -3.886,1.301l-1.169,0.876l-0.684,-1.289c-1.565,-2.945 -4.603,-4.773 -7.929,-4.773c-4.949,0 -8.976,4.027 -8.976,8.976c0,0.928 0.145,1.85 0.43,2.739l0.522,1.632l-2.942,0Zm30.645,14.209l-30.645,0c-4.606,0 -8.354,-3.748 -8.354,-8.355c0,-4.488 3.556,-8.161 8,-8.346c-0.104,-0.621 -0.156,-1.249 -0.156,-1.879c0,-6.328 5.148,-11.476 11.476,-11.476c3.801,0 7.306,1.867 9.435,4.949c1.299,-0.7 2.74,-1.064 4.233,-1.064c4.959,0 8.994,4.035 8.994,8.995c0,0.329 -0.02,0.662 -0.059,0.997c3.208,1.204 5.431,4.324 5.431,7.824c0,4.607 -3.748,8.355 -8.355,8.355" style="fill-rule:nonzero;"/><g><path d="M10.154,32.786c-0.69,0 -1.25,0.56 -1.25,1.25l0,7.955c0,0.691 0.56,1.25 1.25,1.25c0.69,0 1.25,-0.559 1.25,-1.25l0,-7.955c0,-0.69 -0.56,-1.25 -1.25,-1.25" style="fill-rule:nonzero;"/><path d="M20.973,32.786c-0.69,0 -1.25,0.56 -1.25,1.25l0,7.955c0,0.691 0.56,1.25 1.25,1.25c0.69,0 1.25,-0.559 1.25,-1.25l0,-7.955c0,-0.69 -0.56,-1.25 -1.25,-1.25" style="fill-rule:nonzero;"/><path d="M31.791,32.786c-0.69,0 -1.25,0.56 -1.25,1.25l0,1.989c0,0.691 0.56,1.25 1.25,1.25c0.69,0 1.25,-0.559 1.25,-1.25l0,-1.989c0,-0.69 -0.56,-1.25 -1.25,-1.25" style="fill-rule:nonzero;"/><path d="M31.791,38.246c-0.69,0 -1.25,0.578 -1.25,1.269c0,0.69 0.56,1.25 1.25,1.25c0.69,0 1.25,-0.56 1.25,-1.25l0,-0.038c0,-0.69 -0.56,-1.231 -1.25,-1.231" style="fill-rule:nonzero;"/><path d="M15.563,32.786c-0.69,0 -1.25,0.56 -1.25,1.25l0,1.989c0,0.691 0.56,1.25 1.25,1.25c0.69,0 1.25,-0.559 1.25,-1.25l0,-1.989c0,-0.69 -0.56,-1.25 -1.25,-1.25" style="fill-rule:nonzero;"/><path d="M15.563,38.246c-0.69,0 -1.25,0.578 -1.25,1.269c0,0.69 0.56,1.25 1.25,1.25c0.69,0 1.25,-0.56 1.25,-1.25l0,-0.038c0,-0.69 -0.56,-1.231 -1.25,-1.231" style="fill-rule:nonzero;"/><path d="M37.2,32.786c-0.69,0 -1.25,0.56 -1.25,1.25l0,3.978c0,0.69 0.56,1.25 1.25,1.25c0.69,0 1.25,-0.56 1.25,-1.25l0,-3.978c0,-0.69 -0.56,-1.25 -1.25,-1.25" style="fill-rule:nonzero;"/><path d="M26.382,32.786c-0.69,0 -1.25,0.56 -1.25,1.25l0,3.978c0,0.69 0.56,1.25 1.25,1.25c0.69,0 1.25,-0.56 1.25,-1.25l0,-3.978c0,-0.69 -0.56,-1.25 -1.25,-1.25" style="fill-rule:nonzero;"/></g></svg>