<?xml version="1.0" encoding="UTF-8" standalone="no"?><!DOCTYPE svg PUBLIC "-//W3C//DTD SVG 1.1//EN" "http://www.w3.org/Graphics/SVG/1.1/DTD/svg11.dtd"><svg width="100%" height="100%" viewBox="0 0 612 792" version="1.1" xmlns="http://www.w3.org/2000/svg" xmlns:xlink="http://www.w3.org/1999/xlink" xml:space="preserve" xmlns:serif="http://www.serif.com/" style="fill-rule:evenodd;clip-rule:evenodd;stroke-linejoin:round;stroke-miterlimit:1.41421;"><g id="Icons"><path d="M505.969,654.649c-0.573,0 -1.04,-0.466 -1.04,-1.039c0,-0.573 0.467,-1.04 1.04,-1.04c0.573,0 1.04,0.467 1.04,1.04c0,0.573 -0.467,1.039 -1.04,1.039m0,-4.579c-1.952,0 -3.54,1.588 -3.54,3.54c0,1.951 1.588,3.539 3.54,3.539c1.952,0 3.54,-1.588 3.54,-3.539c0,-1.952 -1.588,-3.54 -3.54,-3.54" style="fill-rule:nonzero;"/><path d="M532.004,654.998l-16.403,0c-0.69,0 -1.25,0.56 -1.25,1.25l0,24.638c0,0.69 0.56,1.25 1.25,1.25c0.691,0 1.25,-0.56 1.25,-1.25l0,-11.148l9.202,0c0.69,0 1.25,-0.559 1.25,-1.25c0,-0.69 -0.56,-1.25 -1.25,-1.25l-9.202,0l0,-9.74l15.153,0c0.69,0 1.25,-0.56 1.25,-1.25c0,-0.69 -0.56,-1.25 -1.25,-1.25" style="fill-rule:nonzero;"/><path d="M531.749,538.913c-2.078,2.079 -4.84,3.225 -7.777,3.225c-6.06,0 -10.991,-4.931 -10.991,-10.991c0,-6.059 4.931,-10.99 10.991,-10.99c2.938,0 5.7,1.145 7.776,3.225c0.487,0.487 1.28,0.488 1.768,0.001c0.489,-0.489 0.489,-1.28 0.002,-1.768c-2.549,-2.553 -5.94,-3.958 -9.546,-3.958c-7.439,0 -13.491,6.052 -13.491,13.49c0,7.439 6.052,13.491 13.491,13.491c3.605,0 6.996,-1.406 9.545,-3.957c0.488,-0.489 0.488,-1.281 0,-1.768c-0.49,-0.489 -1.283,-0.487 -1.768,0" style="fill-rule:nonzero;"/><path d="M505.341,517.506c-0.573,0 -1.04,-0.467 -1.04,-1.04c0,-0.573 0.467,-1.04 1.04,-1.04c0.573,0 1.039,0.467 1.039,1.04c0,0.573 -0.466,1.04 -1.039,1.04m0,-4.58c-1.952,0 -3.54,1.588 -3.54,3.54c0,1.952 1.588,3.54 3.54,3.54c1.951,0 3.539,-1.588 3.539,-3.54c0,-1.952 -1.588,-3.54 -3.539,-3.54" style="fill-rule:nonzero;"/><path d="M513.374,390.265c-0.69,0 -1.25,0.56 -1.25,1.25c0,0.69 0.56,1.25 1.25,1.25l18.926,0c0.69,0 1.25,-0.56 1.25,-1.25c0,-0.69 -0.56,-1.25 -1.25,-1.25l-18.926,0Z" style="fill-rule:nonzero;"/><path d="M542.569,390.265l-4.822,0c-0.691,0 -1.25,0.56 -1.25,1.25c0,0.69 0.559,1.25 1.25,1.25l4.822,0c0.69,0 1.25,-0.56 1.25,-1.25c0,-0.69 -0.56,-1.25 -1.25,-1.25" style="fill-rule:nonzero;"/><path d="M529.174,385.643c0,0.69 0.56,1.25 1.25,1.25l4.822,0c0.691,0 1.25,-0.56 1.25,-1.25c0,-0.69 -0.559,-1.25 -1.25,-1.25l-4.822,0c-0.69,0 -1.25,0.56 -1.25,1.25" style="fill-rule:nonzero;"/><path d="M524.758,381.288l4.822,0c0.691,0 1.25,-0.56 1.25,-1.25c0,-0.69 -0.559,-1.25 -1.25,-1.25l-4.822,0c-0.69,0 -1.25,0.56 -1.25,1.25c0,0.69 0.56,1.25 1.25,1.25" style="fill-rule:nonzero;"/><path d="M538.334,396.034l-25.258,0c-0.001,0 -0.002,0.001 -0.004,0.001c-0.031,0 -0.062,-0.001 -0.092,-0.001c-3.053,0 -5.937,1.467 -7.732,3.938c-2.556,3.518 -1.772,8.461 1.747,11.018c2.923,2.123 7.036,1.475 9.163,-1.452c1.782,-2.453 1.237,-5.899 -1.217,-7.681c-2.074,-1.506 -4.987,-1.045 -6.493,1.03c-1.286,1.771 -0.891,4.257 0.879,5.543c0.651,0.473 1.443,0.708 2.248,0.646c0.689,-0.048 1.208,-0.645 1.16,-1.334c-0.047,-0.688 -0.625,-1.205 -1.334,-1.16c-0.143,0.015 -0.379,-0.011 -0.606,-0.175c-0.654,-0.476 -0.8,-1.396 -0.324,-2.052c0.695,-0.958 2.041,-1.173 3.002,-0.475c1.337,0.971 1.634,2.85 0.663,4.188c-1.316,1.811 -3.863,2.216 -5.672,0.899c-2.403,-1.746 -2.939,-5.122 -1.192,-7.527c1.34,-1.845 3.491,-2.9 5.79,-2.905l0.014,0c0.002,0 0.003,-0.001 0.005,-0.001l25.253,0c0.69,0 1.25,-0.56 1.25,-1.25c0,-0.69 -0.56,-1.25 -1.25,-1.25" style="fill-rule:nonzero;"/><path d="M524.573,386.893c0.69,0 1.25,-0.56 1.25,-1.25c0,-0.69 -0.56,-1.25 -1.25,-1.25l-21.368,0c-0.002,0 -0.003,-0.001 -0.005,-0.001c-0.032,0.003 -0.064,0.002 -0.097,0.001c-2.255,0 -4.384,-1.083 -5.708,-2.906c-1.746,-2.404 -1.211,-5.781 1.193,-7.528c0.877,-0.636 1.952,-0.894 3.022,-0.724c1.071,0.17 2.013,0.747 2.65,1.624c0.971,1.338 0.673,3.217 -0.665,4.189c-0.958,0.696 -2.304,0.482 -3.001,-0.476c-0.474,-0.655 -0.33,-1.574 0.323,-2.051c0.001,0 0.002,-0.001 0.003,-0.001c0.103,-0.075 0.217,-0.127 0.341,-0.155c0.672,-0.153 1.094,-0.823 0.941,-1.496c-0.132,-0.58 -0.648,-0.973 -1.218,-0.973c-0.092,0 -0.184,0.01 -0.278,0.031c-0.454,0.104 -0.877,0.295 -1.255,0.57c-0.002,0.001 -0.003,0.003 -0.005,0.005c-1.766,1.287 -2.159,3.77 -0.875,5.538c1.508,2.075 4.421,2.536 6.494,1.031c2.453,-1.783 2.999,-5.229 1.218,-7.681c-1.03,-1.418 -2.551,-2.35 -4.281,-2.624c-0.348,-0.056 -0.697,-0.083 -1.041,-0.083c-1.374,0 -2.709,0.432 -3.842,1.254c-3.52,2.558 -4.303,7.5 -1.747,11.018c1.795,2.471 4.679,3.938 7.731,3.938c0.031,0 0.062,-0.001 0.093,-0.001c0.001,0 0.003,0.001 0.004,0.001l21.373,0Z" style="fill-rule:nonzero;"/><path d="M521.198,265.208l-8.02,0c-0.69,0 -1.25,0.56 -1.25,1.25c0,0.69 0.56,1.25 1.25,1.25l8.02,0c0.69,0 1.25,-0.56 1.25,-1.25c0,-0.69 -0.56,-1.25 -1.25,-1.25" style="fill-rule:nonzero;"/><path d="M518.974,270.136l-5.796,0c-0.69,0 -1.25,0.56 -1.25,1.25c0,0.69 0.56,1.25 1.25,1.25l5.796,0c0.69,0 1.25,-0.56 1.25,-1.25c0,-0.69 -0.56,-1.25 -1.25,-1.25" style="fill-rule:nonzero;"/><path d="M518.974,275.064l-5.796,0c-0.69,0 -1.25,0.56 -1.25,1.25c0,0.69 0.56,1.25 1.25,1.25l5.796,0c0.69,0 1.25,-0.56 1.25,-1.25c0,-0.69 -0.56,-1.25 -1.25,-1.25" style="fill-rule:nonzero;"/><path d="M525.908,260.281l-10.256,0c-0.69,0 -1.25,0.56 -1.25,1.25c0,0.69 0.56,1.25 1.25,1.25l10.256,0c0.69,0 1.25,-0.56 1.25,-1.25c0,-0.69 -0.56,-1.25 -1.25,-1.25" style="fill-rule:nonzero;"/><path d="M528.454,255.354l-15.275,0c-0.691,0 -1.25,0.56 -1.25,1.25c0,0.69 0.559,1.25 1.25,1.25l15.275,0c0.69,0 1.25,-0.56 1.25,-1.25c0,-0.69 -0.56,-1.25 -1.25,-1.25" style="fill-rule:nonzero;"/><path d="M531.89,250.426l-16.93,0c-0.69,0 -1.25,0.56 -1.25,1.25c0,0.69 0.56,1.25 1.25,1.25l16.93,0c0.69,0 1.25,-0.56 1.25,-1.25c0,-0.69 -0.56,-1.25 -1.25,-1.25" style="fill-rule:nonzero;"/><path d="M513.178,247.998l15.911,0c0.691,0 1.25,-0.56 1.25,-1.25c0,-0.69 -0.559,-1.25 -1.25,-1.25l-15.911,0c-0.69,0 -1.25,0.56 -1.25,1.25c0,0.69 0.56,1.25 1.25,1.25" style="fill-rule:nonzero;"/><path d="M538.637,240.571l-23.677,0c-0.69,0 -1.25,0.56 -1.25,1.25c0,0.69 0.56,1.25 1.25,1.25l23.677,0c0.69,0 1.25,-0.56 1.25,-1.25c0,-0.69 -0.56,-1.25 -1.25,-1.25" style="fill-rule:nonzero;"/><path d="M533.14,236.894c0,-0.69 -0.56,-1.25 -1.25,-1.25l-25.832,0c-0.69,0 -1.25,0.56 -1.25,1.25c0,0.69 0.56,1.25 1.25,1.25l25.832,0c0.69,0 1.25,-0.56 1.25,-1.25" style="fill-rule:nonzero;"/><path d="M527.962,231.966c0,-0.69 -0.56,-1.25 -1.25,-1.25l-27.664,0c-0.69,0 -1.25,0.56 -1.25,1.25c0,0.69 0.56,1.25 1.25,1.25l27.664,0c0.69,0 1.25,-0.56 1.25,-1.25" style="fill-rule:nonzero;"/><path d="M503.52,117.638c-3.229,0 -5.854,2.626 -5.854,5.854c0,3.229 2.625,5.855 5.854,5.855l30.645,0c3.228,0 5.855,-2.626 5.855,-5.855c0,-2.741 -1.944,-5.147 -4.622,-5.721l-1.265,-0.272l0.314,-1.254c0.134,-0.534 0.201,-1.063 0.201,-1.574c0,-3.581 -2.913,-6.495 -6.494,-6.495c-1.406,0 -2.75,0.45 -3.886,1.301l-1.169,0.876l-0.684,-1.289c-1.565,-2.945 -4.603,-4.773 -7.929,-4.773c-4.949,0 -8.976,4.027 -8.976,8.976c0,0.928 0.145,1.85 0.43,2.739l0.522,1.632l-2.942,0Zm30.645,14.209l-30.645,0c-4.606,0 -8.354,-3.748 -8.354,-8.355c0,-4.488 3.556,-8.161 8,-8.346c-0.104,-0.621 -0.156,-1.249 -0.156,-1.879c0,-6.328 5.148,-11.476 11.476,-11.476c3.801,0 7.306,1.867 9.435,4.949c1.299,-0.7 2.74,-1.064 4.233,-1.064c4.959,0 8.994,4.035 8.994,8.995c0,0.329 -0.02,0.662 -0.059,0.997c3.208,1.204 5.431,4.324 5.431,7.824c0,4.607 -3.748,8.355 -8.355,8.355" style="fill-rule:nonzero;"/><path d="M426.376,665.543c-1.847,0 -3.518,0.86 -4.595,2.231c-1.077,-1.371 -2.748,-2.231 -4.595,-2.231c-1.848,0 -3.519,0.86 -4.596,2.231c-1.077,-1.371 -2.748,-2.231 -4.596,-2.231c-1.847,0 -3.518,0.86 -4.596,2.231c-1.077,-1.371 -2.748,-2.231 -4.595,-2.231c-0.974,0 -1.9,0.239 -2.714,0.666c2.141,-8.053 8.566,-13.53 16.501,-13.53c7.935,0 14.361,5.476 16.501,13.53c-0.816,-0.428 -1.74,-0.667 -2.715,-0.667m5.924,4.957c-0.708,-11.308 -8.39,-19.616 -18.46,-20.259l0,-1.14c0,-0.692 -0.56,-1.25 -1.25,-1.25c-0.691,0 -1.25,0.558 -1.25,1.25l0,1.14c-10.07,0.643 -17.752,8.951 -18.46,20.259l-0.084,1.327l2.534,0l0.184,-1.029c0.285,-1.596 1.668,-2.755 3.289,-2.755c1.621,0 3.004,1.159 3.289,2.755l0.183,1.029l2.247,0l0.183,-1.029c0.285,-1.596 1.668,-2.755 3.289,-2.755c1.621,0 3.004,1.159 3.289,2.755l0.057,0.317l0,14.286c0,1.187 -0.966,2.152 -2.152,2.152c-1.187,0 -2.152,-0.966 -2.152,-2.152l0,-2.042c0,-0.69 -0.559,-1.25 -1.25,-1.25c-0.69,0 -1.25,0.56 -1.25,1.25l0,2.042c0,2.565 2.087,4.652 4.652,4.652c2.565,0 4.652,-2.087 4.652,-4.652l0,-14.285l0.057,-0.318c0.285,-1.596 1.667,-2.755 3.289,-2.755c1.621,0 3.003,1.159 3.289,2.755l0.183,1.029l2.244,0l0.185,-1.029c0.285,-1.596 1.669,-2.755 3.289,-2.755c1.621,0 3.005,1.159 3.29,2.755l0.185,1.029l2.533,0l-0.084,-1.327Z" style="fill-rule:nonzero;"/><path d="M395.765,649.067c0.69,0 1.25,-0.56 1.25,-1.25l0,-6.415c0,-0.69 -0.56,-1.25 -1.25,-1.25c-0.69,0 -1.25,0.56 -1.25,1.25l0,6.415c0,0.69 0.56,1.25 1.25,1.25" style="fill-rule:nonzero;"/><path d="M401.373,645.859c0.69,0 1.25,-0.56 1.25,-1.25l0,-3.207c0,-0.69 -0.56,-1.25 -1.25,-1.25c-0.69,0 -1.25,0.56 -1.25,1.25l0,3.207c0,0.69 0.56,1.25 1.25,1.25" style="fill-rule:nonzero;"/><path d="M406.981,649.067c0.69,0 1.25,-0.56 1.25,-1.25l0,-6.415c0,-0.69 -0.56,-1.25 -1.25,-1.25c-0.69,0 -1.25,0.56 -1.25,1.25l0,6.415c0,0.69 0.56,1.25 1.25,1.25" style="fill-rule:nonzero;"/><path d="M412.59,645.859c0.69,0 1.25,-0.56 1.25,-1.25l0,-3.207c0,-0.69 -0.56,-1.25 -1.25,-1.25c-0.69,0 -1.25,0.56 -1.25,1.25l0,3.207c0,0.69 0.56,1.25 1.25,1.25" style="fill-rule:nonzero;"/><path d="M418.198,649.067c0.69,0 1.25,-0.56 1.25,-1.25l0,-6.415c0,-0.69 -0.56,-1.25 -1.25,-1.25c-0.69,0 -1.25,0.56 -1.25,1.25l0,6.415c0,0.69 0.56,1.25 1.25,1.25" style="fill-rule:nonzero;"/><path d="M423.806,645.859c0.69,0 1.25,-0.56 1.25,-1.25l0,-3.207c0,-0.69 -0.56,-1.25 -1.25,-1.25c-0.69,0 -1.25,0.56 -1.25,1.25l0,3.207c0,0.69 0.56,1.25 1.25,1.25" style="fill-rule:nonzero;"/><path d="M429.414,649.067c0.69,0 1.25,-0.56 1.25,-1.25l0,-6.415c0,-0.69 -0.56,-1.25 -1.25,-1.25c-0.69,0 -1.25,0.56 -1.25,1.25l0,6.415c0,0.69 0.56,1.25 1.25,1.25" style="fill-rule:nonzero;"/><path d="M395.762,653.326c0.33,0 0.65,-0.131 0.891,-0.37c0.229,-0.231 0.359,-0.551 0.359,-0.88c0,-0.33 -0.13,-0.65 -0.359,-0.881c-0.471,-0.47 -1.311,-0.47 -1.771,0c-0.229,0.231 -0.37,0.551 -0.37,0.881c0,0.329 0.141,0.649 0.37,0.88c0.231,0.239 0.55,0.37 0.88,0.37" style="fill-rule:nonzero;"/><path d="M401.372,650.086c0.33,0 0.65,-0.13 0.89,-0.37c0.23,-0.231 0.36,-0.562 0.36,-0.88c0,-0.321 -0.13,-0.65 -0.37,-0.891c-0.47,-0.461 -1.3,-0.461 -1.76,0c-0.24,0.24 -0.37,0.56 -0.37,0.89c0,0.331 0.13,0.649 0.37,0.88c0.23,0.23 0.55,0.37 0.88,0.37" style="fill-rule:nonzero;"/><path d="M423.802,650.086c0.33,0 0.65,-0.13 0.891,-0.37c0.229,-0.231 0.359,-0.562 0.359,-0.88c0,-0.321 -0.13,-0.65 -0.359,-0.891c-0.481,-0.461 -1.311,-0.461 -1.771,0c-0.229,0.24 -0.37,0.56 -0.37,0.89c0,0.331 0.141,0.649 0.37,0.88c0.231,0.23 0.55,0.37 0.88,0.37" style="fill-rule:nonzero;"/><path d="M429.412,653.326c0.33,0 0.65,-0.131 0.89,-0.37c0.23,-0.231 0.36,-0.551 0.36,-0.88c0,-0.33 -0.13,-0.65 -0.36,-0.881c-0.47,-0.47 -1.31,-0.47 -1.77,0c-0.23,0.231 -0.37,0.551 -0.37,0.881c0,0.329 0.14,0.649 0.37,0.88c0.23,0.239 0.55,0.37 0.88,0.37" style="fill-rule:nonzero;"/><path d="M427.912,534.925l-30.645,0c-3.228,0 -5.854,-2.627 -5.854,-5.855c0,-3.229 2.626,-5.855 5.854,-5.855l2.943,0l-0.523,-1.632c-0.285,-0.889 -0.429,-1.811 -0.429,-2.739c0,-4.949 4.026,-8.976 8.975,-8.976c3.326,0 6.365,1.829 7.929,4.774l0.685,1.289l1.169,-0.876c1.135,-0.852 2.48,-1.302 3.885,-1.302c3.581,0 6.494,2.914 6.494,6.495c0,0.511 -0.067,1.04 -0.201,1.574l-0.313,1.254l1.264,0.272c2.678,0.574 4.621,2.98 4.621,5.722c0,3.228 -2.625,5.855 -5.854,5.855m2.925,-13.68c0.039,-0.335 0.058,-0.668 0.058,-0.997c0,-4.96 -4.035,-8.995 -8.994,-8.995c-1.492,0 -2.933,0.364 -4.232,1.064c-2.129,-3.082 -5.635,-4.949 -9.436,-4.949c-6.328,0 -11.475,5.148 -11.475,11.476c0,0.63 0.051,1.258 0.155,1.879c-4.443,0.185 -8,3.858 -8,8.347c0,4.607 3.748,8.355 8.354,8.355l30.645,0c4.606,0 8.354,-3.748 8.354,-8.355c0,-3.501 -2.222,-6.621 -5.429,-7.825" style="fill-rule:nonzero;"/><path d="M406.254,543.101c-0.69,0 -1.25,0.594 -1.25,1.284c0,0.691 0.56,1.25 1.25,1.25c0.69,0 1.25,-0.559 1.25,-1.25l0,-0.068c0,-0.691 -0.56,-1.216 -1.25,-1.216" style="fill-rule:nonzero;"/><path d="M399.919,539.961c-0.69,0 -1.25,0.594 -1.25,1.284c0,0.691 0.56,1.25 1.25,1.25c0.69,0 1.25,-0.559 1.25,-1.25l0,-0.068c0,-0.691 -0.56,-1.216 -1.25,-1.216" style="fill-rule:nonzero;"/><path d="M399.919,546.16c-0.69,0 -1.25,0.594 -1.25,1.284c0,0.691 0.56,1.25 1.25,1.25c0.69,0 1.25,-0.559 1.25,-1.25l0,-0.068c0,-0.691 -0.56,-1.216 -1.25,-1.216" style="fill-rule:nonzero;"/><path d="M418.925,543.101c-0.69,0 -1.25,0.594 -1.25,1.284c0,0.691 0.56,1.25 1.25,1.25c0.69,0 1.25,-0.559 1.25,-1.25l0,-0.068c0,-0.691 -0.56,-1.216 -1.25,-1.216" style="fill-rule:nonzero;"/><path d="M412.59,539.961c-0.69,0 -1.25,0.594 -1.25,1.284c0,0.691 0.56,1.25 1.25,1.25c0.69,0 1.25,-0.559 1.25,-1.25l0,-0.068c0,-0.691 -0.56,-1.216 -1.25,-1.216" style="fill-rule:nonzero;"/><path d="M412.59,546.16c-0.69,0 -1.25,0.594 -1.25,1.284c0,0.691 0.56,1.25 1.25,1.25c0.69,0 1.25,-0.559 1.25,-1.25l0,-0.068c0,-0.691 -0.56,-1.216 -1.25,-1.216" style="fill-rule:nonzero;"/><path d="M425.261,539.961c-0.69,0 -1.25,0.594 -1.25,1.284c0,0.691 0.56,1.25 1.25,1.25c0.69,0 1.25,-0.559 1.25,-1.25l0,-0.068c0,-0.691 -0.56,-1.216 -1.25,-1.216" style="fill-rule:nonzero;"/><path d="M425.261,546.16c-0.69,0 -1.25,0.594 -1.25,1.284c0,0.691 0.56,1.25 1.25,1.25c0.69,0 1.25,-0.559 1.25,-1.25l0,-0.068c0,-0.691 -0.56,-1.216 -1.25,-1.216" style="fill-rule:nonzero;"/><path d="M399.059,399.501l-0.005,0c-0.69,0.003 -1.248,0.564 -1.245,1.255l0.03,7.954c0.003,0.688 0.562,1.245 1.25,1.245l0.005,0c0.691,-0.003 1.248,-0.564 1.245,-1.255l-0.03,-7.954c-0.003,-0.688 -0.562,-1.245 -1.25,-1.245" style="fill-rule:nonzero;"/><path d="M410.016,399.459l-0.005,0c-0.69,0.003 -1.248,0.564 -1.245,1.255l0.03,7.954c0.003,0.688 0.562,1.245 1.25,1.245l0.005,0c0.691,-0.003 1.248,-0.564 1.245,-1.255l-0.03,-7.954c-0.003,-0.688 -0.562,-1.245 -1.25,-1.245" style="fill-rule:nonzero;"/><path d="M415.495,399.438l-0.005,0c-0.69,0.003 -1.248,0.564 -1.245,1.255l0.047,12.208c0.003,0.688 0.561,1.245 1.25,1.245l0.005,0c0.69,-0.003 1.248,-0.564 1.245,-1.255l-0.047,-12.208c-0.003,-0.688 -0.562,-1.245 -1.25,-1.245" style="fill-rule:nonzero;"/><path d="M404.538,399.479l-0.005,0c-0.69,0.003 -1.248,0.564 -1.245,1.255l0.047,12.209c0.003,0.688 0.561,1.245 1.25,1.245l0.005,0c0.69,-0.003 1.248,-0.564 1.245,-1.255l-0.047,-12.209c-0.003,-0.688 -0.562,-1.245 -1.25,-1.245" style="fill-rule:nonzero;"/><path d="M420.969,399.417c-0.69,0.003 -1.248,0.564 -1.245,1.255l0.03,7.955c0.003,0.688 0.562,1.245 1.25,1.245l0.005,0c0.69,-0.003 1.248,-0.564 1.245,-1.255l-0.03,-7.955c-0.004,-0.691 -0.57,-1.213 -1.255,-1.245" style="fill-rule:nonzero;"/><path d="M426.104,399.397l-0.005,0c-0.69,0.003 -1.248,0.564 -1.245,1.255l0.016,3.977c0.003,0.689 0.561,1.246 1.25,1.246l0.005,0c0.69,-0.003 1.248,-0.565 1.245,-1.255l-0.016,-3.978c-0.003,-0.688 -0.562,-1.245 -1.25,-1.245" style="fill-rule:nonzero;"/><path d="M427.912,395.363l0,1.25l-0.022,-1.25l-30.645,-0.117c-1.564,-0.006 -3.032,-0.62 -4.134,-1.731c-1.101,-1.11 -1.704,-2.583 -1.698,-4.146c0.012,-3.216 2.639,-5.832 5.877,-5.832l2.941,0.012l-0.516,-1.634c-0.282,-0.892 -0.422,-1.814 -0.418,-2.741c0.018,-4.931 4.045,-8.942 9.01,-8.942c3.326,0.013 6.357,1.853 7.91,4.802l0.68,1.292l1.172,-0.871c1.132,-0.842 2.47,-1.286 3.89,-1.286c3.581,0.013 6.483,2.938 6.47,6.52c-0.002,0.515 -0.07,1.029 -0.207,1.574l-0.317,1.252l1.262,0.277c2.676,0.584 4.609,2.997 4.599,5.738c-0.011,3.217 -2.638,5.833 -5.854,5.833m2.954,-13.668c0.041,-0.336 0.062,-0.669 0.063,-0.997c0.019,-4.96 -4,-9.01 -8.992,-9.029c-1.481,0 -2.912,0.359 -4.204,1.048c-2.118,-3.091 -5.621,-4.97 -9.462,-4.985c-6.302,0 -11.45,5.128 -11.474,11.431c-0.003,0.631 0.047,1.259 0.147,1.88c-4.44,0.171 -8.014,3.836 -8.031,8.316c-0.009,2.232 0.852,4.333 2.424,5.917c1.572,1.584 3.667,2.461 5.898,2.47l30.645,0.117l0.032,0c4.59,0 8.337,-3.733 8.354,-8.323c0.013,-3.502 -2.197,-6.629 -5.4,-7.845" style="fill-rule:nonzero;"/><path d="M415.105,382.527l-0.005,0l-2.955,0.011l1.76,-3.355c0.321,-0.611 0.086,-1.367 -0.526,-1.687c-0.611,-0.322 -1.367,-0.086 -1.687,0.525l-2.725,5.193c-0.204,0.389 -0.189,0.856 0.038,1.23c0.227,0.374 0.632,0.602 1.069,0.602l0.005,0l2.964,-0.011l-2.111,4.068c-0.318,0.613 -0.079,1.367 0.533,1.686c0.185,0.095 0.381,0.14 0.576,0.14c0.452,0 0.887,-0.245 1.11,-0.673l3.063,-5.903c0.202,-0.389 0.186,-0.853 -0.042,-1.227c-0.227,-0.372 -0.631,-0.599 -1.067,-0.599" style="fill-rule:nonzero;"/><path d="M427.912,258.029l-30.645,0c-3.228,0 -5.854,-2.626 -5.854,-5.854c0,-3.229 2.626,-5.855 5.854,-5.855l2.943,0l-0.523,-1.632c-0.285,-0.889 -0.429,-1.811 -0.429,-2.739c0,-4.949 4.026,-8.976 8.975,-8.976c3.326,0 6.365,1.828 7.929,4.773l0.685,1.289l1.169,-0.876c1.135,-0.851 2.479,-1.301 3.885,-1.301c3.581,0 6.494,2.914 6.494,6.495c0,0.511 -0.067,1.04 -0.201,1.574l-0.313,1.254l1.264,0.272c2.678,0.574 4.621,2.98 4.621,5.722c0,3.228 -2.625,5.854 -5.854,5.854m2.925,-13.679c0.039,-0.335 0.058,-0.668 0.058,-0.997c0,-4.96 -4.035,-8.995 -8.994,-8.995c-1.493,0 -2.933,0.364 -4.232,1.064c-2.129,-3.082 -5.635,-4.949 -9.436,-4.949c-6.328,0 -11.475,5.148 -11.475,11.476c0,0.63 0.051,1.258 0.155,1.879c-4.443,0.185 -8,3.858 -8,8.347c0,4.606 3.748,8.354 8.354,8.354l30.645,0c4.606,0 8.354,-3.748 8.354,-8.354c0,-3.501 -2.222,-6.621 -5.429,-7.825" style="fill-rule:nonzero;"/><path d="M399.118,262.598c-0.69,0 -1.25,0.56 -1.25,1.25l0,7.954c0,0.691 0.56,1.25 1.25,1.25c0.69,0 1.25,-0.559 1.25,-1.25l0,-7.954c0,-0.69 -0.56,-1.25 -1.25,-1.25" style="fill-rule:nonzero;"/><path d="M410.076,262.598c-0.69,0 -1.25,0.56 -1.25,1.25l0,7.954c0,0.691 0.56,1.25 1.25,1.25c0.69,0 1.25,-0.559 1.25,-1.25l0,-7.954c0,-0.69 -0.56,-1.25 -1.25,-1.25" style="fill-rule:nonzero;"/><path d="M415.555,262.598c-0.69,0 -1.25,0.56 -1.25,1.25l0,12.208c0,0.69 0.56,1.25 1.25,1.25c0.69,0 1.25,-0.56 1.25,-1.25l0,-12.208c0,-0.69 -0.56,-1.25 -1.25,-1.25" style="fill-rule:nonzero;"/><path d="M404.597,262.598c-0.69,0 -1.25,0.56 -1.25,1.25l0,12.208c0,0.69 0.56,1.25 1.25,1.25c0.69,0 1.25,-0.56 1.25,-1.25l0,-12.208c0,-0.69 -0.56,-1.25 -1.25,-1.25" style="fill-rule:nonzero;"/><path d="M421.033,262.598c-0.69,0 -1.25,0.56 -1.25,1.25l0,7.954c0,0.691 0.56,1.25 1.25,1.25c0.69,0 1.25,-0.559 1.25,-1.25l0,-7.954c0,-0.69 -0.56,-1.25 -1.25,-1.25" style="fill-rule:nonzero;"/><path d="M426.164,262.598c-0.69,0 -1.25,0.56 -1.25,1.25l0,3.977c0,0.69 0.56,1.25 1.25,1.25c0.69,0 1.25,-0.56 1.25,-1.25l0,-3.977c0,-0.69 -0.56,-1.25 -1.25,-1.25" style="fill-rule:nonzero;"/><path d="M427.912,122.548l-30.645,0c-3.228,0 -5.854,-2.627 -5.854,-5.855c0,-3.229 2.626,-5.855 5.854,-5.855l2.943,0l-0.523,-1.632c-0.285,-0.889 -0.429,-1.811 -0.429,-2.739c0,-4.949 4.026,-8.976 8.975,-8.976c3.326,0 6.365,1.828 7.929,4.773l0.685,1.289l1.169,-0.876c1.135,-0.851 2.479,-1.301 3.885,-1.301c3.581,0 6.494,2.914 6.494,6.495c0,0.508 -0.067,1.037 -0.201,1.575l-0.311,1.253l1.262,0.272c2.678,0.574 4.621,2.98 4.621,5.722c0,3.228 -2.625,5.855 -5.854,5.855m2.925,-13.68c0.039,-0.336 0.058,-0.669 0.058,-0.997c0,-4.96 -4.035,-8.995 -8.994,-8.995c-1.493,0 -2.933,0.364 -4.232,1.064c-2.129,-3.082 -5.635,-4.949 -9.436,-4.949c-6.328,0 -11.475,5.148 -11.475,11.476c0,0.63 0.051,1.258 0.155,1.879c-4.443,0.185 -8,3.858 -8,8.347c0,4.607 3.748,8.355 8.354,8.355l30.645,0c4.606,0 8.354,-3.748 8.354,-8.355c0,-3.501 -2.222,-6.621 -5.429,-7.825" style="fill-rule:nonzero;"/><path d="M407.02,131.025l-2.299,0l1.414,-2.673c0.323,-0.61 0.091,-1.367 -0.519,-1.689c-0.61,-0.323 -1.367,-0.091 -1.69,0.519l-2.385,4.508c-0.206,0.388 -0.193,0.855 0.033,1.23c0.226,0.376 0.633,0.605 1.071,0.605l2.309,0l-1.725,3.292c-0.32,0.611 -0.084,1.367 0.527,1.687c0.186,0.097 0.384,0.143 0.579,0.143c0.451,0 0.885,-0.243 1.109,-0.67l2.683,-5.122c0.204,-0.388 0.189,-0.852 -0.038,-1.227c-0.226,-0.374 -0.632,-0.603 -1.069,-0.603" style="fill-rule:nonzero;"/><path d="M414.777,131.025l-2.299,0l1.414,-2.673c0.323,-0.61 0.091,-1.367 -0.519,-1.689c-0.61,-0.323 -1.367,-0.091 -1.69,0.519l-2.385,4.508c-0.206,0.388 -0.193,0.855 0.033,1.23c0.226,0.376 0.633,0.605 1.071,0.605l2.309,0l-1.725,3.292c-0.32,0.611 -0.084,1.367 0.527,1.687c0.186,0.097 0.384,0.143 0.579,0.143c0.451,0 0.885,-0.243 1.109,-0.67l2.683,-5.122c0.204,-0.388 0.189,-0.852 -0.038,-1.227c-0.226,-0.374 -0.632,-0.603 -1.069,-0.603" style="fill-rule:nonzero;"/><path d="M422.534,131.025l-2.299,0l1.415,-2.673c0.323,-0.61 0.091,-1.366 -0.519,-1.689c-0.61,-0.323 -1.368,-0.091 -1.69,0.519l-2.386,4.508c-0.206,0.388 -0.193,0.855 0.033,1.23c0.226,0.376 0.633,0.605 1.071,0.605l2.309,0l-1.725,3.292c-0.32,0.611 -0.084,1.367 0.527,1.687c0.186,0.097 0.384,0.143 0.579,0.143c0.451,0 0.885,-0.243 1.109,-0.67l2.683,-5.122c0.204,-0.388 0.189,-0.852 -0.038,-1.227c-0.226,-0.374 -0.632,-0.603 -1.069,-0.603" style="fill-rule:nonzero;"/><path d="M321.476,675.162l-5.272,-3.043c0.335,-0.364 0.731,-0.66 1.179,-0.743c0.795,-0.149 1.529,0.417 1.56,0.441c0.525,0.441 1.307,0.373 1.752,-0.148c0.448,-0.526 0.385,-1.315 -0.141,-1.762c-0.161,-0.138 -1.631,-1.333 -3.579,-0.998c-1.124,0.194 -2.118,0.85 -2.969,1.941l-2.01,-1.161l0.198,-0.343c0.344,-0.598 0.139,-1.363 -0.458,-1.708c-0.6,-0.344 -1.364,-0.14 -1.708,0.458l-0.198,0.342l-4.046,-2.336l4.045,-2.335l0.199,0.343c0.231,0.402 0.652,0.625 1.084,0.625c0.212,0 0.426,-0.053 0.624,-0.167c0.597,-0.345 0.802,-1.11 0.458,-1.708l-0.199,-0.344l2.011,-1.161c0.851,1.092 1.845,1.748 2.969,1.942c0.238,0.041 0.469,0.058 0.691,0.058c1.596,0 2.747,-0.935 2.888,-1.056c0.526,-0.448 0.589,-1.237 0.141,-1.762c-0.448,-0.525 -1.237,-0.591 -1.762,-0.141c-0.006,0.006 -0.727,0.573 -1.533,0.437c-0.455,-0.079 -0.857,-0.378 -1.196,-0.747l5.272,-3.043c0.598,-0.346 0.803,-1.11 0.458,-1.708c-0.347,-0.599 -1.109,-0.802 -1.708,-0.458l-5.272,3.044c-0.148,-0.472 -0.207,-0.963 -0.054,-1.393c0.273,-0.769 1.122,-1.113 1.162,-1.129c0.643,-0.235 0.977,-0.945 0.748,-1.591c-0.23,-0.652 -0.948,-0.992 -1.596,-0.76c-0.2,0.07 -1.971,0.746 -2.654,2.6c-0.394,1.071 -0.324,2.259 0.196,3.541l-2.011,1.161l-0.198,-0.342c-0.344,-0.599 -1.109,-0.803 -1.708,-0.458c-0.597,0.345 -0.802,1.11 -0.458,1.708l0.198,0.343l-4.045,2.336l0,-4.672l0.396,0c0.691,0 1.25,-0.56 1.25,-1.25c0,-0.691 -0.559,-1.25 -1.25,-1.25l-0.396,0l0,-2.331c1.367,-0.192 2.436,-0.718 3.165,-1.593c1.263,-1.518 0.964,-3.389 0.925,-3.598c-0.125,-0.673 -0.768,-1.102 -1.44,-0.998c-0.675,0.116 -1.129,0.762 -1.021,1.438c0.001,0.009 0.143,0.938 -0.397,1.572c-0.295,0.347 -0.75,0.537 -1.232,0.645l0,-6.083c0,-0.69 -0.561,-1.25 -1.251,-1.25c-0.69,0 -1.25,0.56 -1.25,1.25l0,6.083c-0.482,-0.108 -0.938,-0.298 -1.233,-0.645c-0.53,-0.622 -0.404,-1.53 -0.397,-1.571c0.117,-0.674 -0.33,-1.32 -1.005,-1.444c-0.68,-0.123 -1.331,0.324 -1.456,1.003c-0.038,0.209 -0.339,2.08 0.925,3.598c0.729,0.875 1.799,1.401 3.166,1.593l0,2.331l-0.397,0c-0.69,0 -1.25,0.559 -1.25,1.25c0,0.69 0.56,1.25 1.25,1.25l0.397,0l0,4.672l-4.046,-2.336l0.198,-0.343c0.345,-0.598 0.14,-1.363 -0.458,-1.707c-0.596,-0.346 -1.362,-0.142 -1.707,0.457l-0.198,0.343l-2.012,-1.161c0.52,-1.283 0.591,-2.471 0.196,-3.542c-0.682,-1.854 -2.453,-2.529 -2.653,-2.6c-0.648,-0.229 -1.365,0.108 -1.596,0.759c-0.232,0.651 0.109,1.365 0.759,1.596c0.008,0.003 0.864,0.349 1.145,1.109c0.159,0.433 0.101,0.931 -0.049,1.409l-5.272,-3.044c-0.596,-0.343 -1.362,-0.141 -1.707,0.458c-0.345,0.598 -0.14,1.362 0.457,1.708l5.273,3.044c-0.335,0.364 -0.731,0.66 -1.18,0.743c-0.805,0.154 -1.528,-0.417 -1.559,-0.441c-0.524,-0.439 -1.307,-0.374 -1.752,0.148c-0.449,0.525 -0.386,1.314 0.14,1.762c0.142,0.121 1.292,1.056 2.888,1.056c0.222,0 0.453,-0.017 0.691,-0.058c1.125,-0.194 2.118,-0.85 2.969,-1.941l2.011,1.161l-0.198,0.343c-0.345,0.598 -0.14,1.363 0.457,1.708c0.197,0.114 0.412,0.167 0.625,0.167c0.431,0 0.852,-0.223 1.083,-0.625l0.198,-0.343l4.046,2.335l-4.046,2.336l-0.198,-0.342c-0.346,-0.599 -1.111,-0.804 -1.708,-0.457c-0.597,0.344 -0.802,1.109 -0.457,1.707l0.198,0.342l-2.011,1.162c-0.851,-1.092 -1.845,-1.747 -2.969,-1.941c-1.948,-0.338 -3.418,0.86 -3.579,0.998c-0.526,0.447 -0.589,1.236 -0.14,1.762c0.447,0.524 1.236,0.59 1.761,0.14c0.008,-0.004 0.734,-0.572 1.533,-0.436c0.455,0.078 0.857,0.378 1.196,0.745l-5.272,3.044c-0.597,0.346 -0.802,1.11 -0.457,1.708c0.231,0.401 0.652,0.625 1.083,0.625c0.213,0 0.427,-0.054 0.624,-0.167l5.272,-3.044c0.148,0.472 0.207,0.964 0.054,1.394c-0.273,0.77 -1.124,1.114 -1.162,1.129c-0.643,0.235 -0.977,0.945 -0.747,1.592c0.181,0.512 0.663,0.831 1.177,0.831c0.139,0 0.281,-0.023 0.419,-0.072c0.2,-0.071 1.971,-0.746 2.653,-2.6c0.395,-1.071 0.324,-2.26 -0.196,-3.543l2.011,-1.161l0.199,0.344c0.231,0.401 0.652,0.625 1.083,0.625c0.213,0 0.428,-0.054 0.624,-0.167c0.598,-0.346 0.803,-1.11 0.458,-1.708l-0.199,-0.344l4.047,-2.336l0,4.672l-0.397,0c-0.69,0 -1.25,0.56 -1.25,1.25c0,0.691 0.56,1.25 1.25,1.25l0.397,0l0,2.331c-1.367,0.192 -2.437,0.717 -3.166,1.593c-1.264,1.518 -0.963,3.389 -0.925,3.598c0.111,0.6 0.633,1.016 1.224,1.016c0.071,0 0.143,-0.006 0.216,-0.018c0.675,-0.116 1.129,-0.762 1.021,-1.438c-0.002,-0.009 -0.143,-0.938 0.397,-1.572c0.295,-0.347 0.751,-0.537 1.233,-0.645l0,6.084c0,0.69 0.56,1.25 1.25,1.25c0.69,0 1.251,-0.56 1.251,-1.25l0,-6.084c0.482,0.108 0.937,0.298 1.232,0.645c0.529,0.62 0.404,1.524 0.397,1.57c-0.118,0.675 0.331,1.32 1.005,1.445c0.078,0.013 0.153,0.02 0.228,0.02c0.592,0 1.117,-0.421 1.228,-1.023c0.039,-0.209 0.338,-2.08 -0.925,-3.598c-0.729,-0.875 -1.798,-1.401 -3.165,-1.593l0,-2.331l0.396,0c0.691,0 1.25,-0.559 1.25,-1.25c0,-0.69 -0.559,-1.25 -1.25,-1.25l-0.396,0l0,-4.672l4.046,2.336l-0.199,0.344c-0.344,0.598 -0.139,1.362 0.458,1.708c0.198,0.113 0.412,0.167 0.624,0.167c0.432,0 0.853,-0.224 1.084,-0.625l0.199,-0.343l2.01,1.16c-0.52,1.283 -0.59,2.472 -0.196,3.543c0.683,1.854 2.454,2.53 2.654,2.6c0.138,0.049 0.28,0.072 0.418,0.072c0.514,0 0.996,-0.319 1.178,-0.832c0.231,-0.65 -0.108,-1.365 -0.76,-1.595c-0.008,-0.003 -0.864,-0.349 -1.144,-1.11c-0.16,-0.433 -0.102,-0.931 0.048,-1.409l5.272,3.044c0.197,0.113 0.412,0.167 0.624,0.167c0.432,0 0.852,-0.224 1.084,-0.625c0.345,-0.598 0.14,-1.362 -0.458,-1.708" style="fill-rule:nonzero;"/><path d="M322.657,523.092c-0.56,-0.39 -1.158,-0.732 -1.811,-0.977c0.04,-0.336 0.06,-0.669 0.06,-0.997c0,-1.958 -0.636,-3.767 -1.703,-5.246c1.137,-2.058 1.556,-4.456 1.151,-6.778c0.808,0.415 1.55,0.954 2.199,1.603c1.671,1.671 2.591,3.892 2.591,6.254c0,2.312 -0.885,4.483 -2.487,6.141m-4.735,12.702l-30.645,0c-3.228,0 -5.854,-2.626 -5.854,-5.854c0,-3.229 2.626,-5.855 5.854,-5.855l2.943,0l-0.523,-1.632c-0.285,-0.889 -0.43,-1.811 -0.43,-2.739c0,-4.949 4.027,-8.976 8.976,-8.976c3.326,0 6.364,1.829 7.93,4.773l0.685,1.289l1.168,-0.876c1.135,-0.851 2.478,-1.301 3.885,-1.301c1.549,0 2.972,0.547 4.09,1.456c0.658,0.535 1.211,1.195 1.619,1.945c0.501,0.921 0.786,1.975 0.786,3.094c0,0.515 -0.066,1.03 -0.202,1.574l-0.313,1.254l1.264,0.272c0.487,0.104 0.939,0.288 1.371,0.505c0.806,0.405 1.504,0.98 2.042,1.687c0.756,0.993 1.209,2.22 1.209,3.53c0,3.228 -2.627,5.854 -5.855,5.854m9.722,-18.843c0,-3.03 -1.18,-5.879 -3.323,-8.021c-1.541,-1.542 -3.486,-2.6 -5.625,-3.06l-2.443,-0.526l1.045,2.27c0.941,2.047 0.909,4.36 0.051,6.356c-1.513,-1.154 -3.394,-1.847 -5.438,-1.847c-1.493,0 -2.934,0.364 -4.232,1.064c-2.129,-3.082 -5.636,-4.949 -9.436,-4.949c-6.328,0 -11.476,5.148 -11.476,11.476c0,0.63 0.053,1.258 0.156,1.879c-4.443,0.185 -8,3.858 -8,8.347c0,4.606 3.748,8.354 8.354,8.354l30.645,0c4.607,0 8.355,-3.748 8.355,-8.354c0,-1.913 -0.68,-3.698 -1.805,-5.133c2.042,-2.123 3.172,-4.9 3.172,-7.856" style="fill-rule:nonzero;"/><path d="M309.972,540.334c-0.69,-0.001 -1.25,0.559 -1.25,1.249l0,1.989c0,0.691 0.56,1.25 1.25,1.25c0.69,0 1.25,-0.559 1.25,-1.25l0,-1.989c0,-0.69 -0.56,-1.25 -1.25,-1.25" style="fill-rule:nonzero;"/><path d="M309.972,546.089c-0.69,0 -1.25,0.586 -1.25,1.276c0,0.691 0.56,1.25 1.25,1.25c0.69,0 1.25,-0.559 1.25,-1.25l0,-0.053c0,-0.691 -0.56,-1.223 -1.25,-1.223" style="fill-rule:nonzero;"/><path d="M309.972,549.692c-0.69,0 -1.25,0.587 -1.25,1.277c0,0.691 0.56,1.25 1.25,1.25c0.69,0 1.25,-0.559 1.25,-1.25l0,-0.054c0,-0.691 -0.56,-1.223 -1.25,-1.223" style="fill-rule:nonzero;"/><path d="M288.871,546.089c-0.69,0 -1.25,0.586 -1.25,1.276c0,0.691 0.56,1.25 1.25,1.25c0.69,0 1.25,-0.559 1.25,-1.25l0,-0.053c0,-0.691 -0.56,-1.223 -1.25,-1.223" style="fill-rule:nonzero;"/><path d="M299.016,540.334c-0.69,-0.001 -1.25,0.559 -1.25,1.249l0,1.989c0,0.691 0.56,1.25 1.25,1.25c0.69,0 1.25,-0.559 1.25,-1.25l0,-1.989c0,-0.69 -0.56,-1.25 -1.25,-1.25" style="fill-rule:nonzero;"/><path d="M293.745,540.559c-0.69,0 -1.25,0.56 -1.25,1.25l0,3.752c0,0.69 0.56,1.25 1.25,1.25c0.69,0 1.25,-0.56 1.25,-1.25l0,-3.752c0,-0.69 -0.56,-1.25 -1.25,-1.25" style="fill-rule:nonzero;"/><path d="M315.381,540.334c-0.69,-0.001 -1.25,0.559 -1.25,1.249l0,1.206c0,0.69 0.56,1.25 1.25,1.25c0.69,0 1.25,-0.56 1.25,-1.25l0,-1.206c0,-0.69 -0.56,-1.25 -1.25,-1.25" style="fill-rule:nonzero;"/><path d="M288.871,540.334c-0.69,-0.001 -1.25,0.559 -1.25,1.249l0,2.412c0,0.691 0.56,1.25 1.25,1.25c0.69,0 1.25,-0.559 1.25,-1.25l0,-2.412c0,-0.69 -0.56,-1.25 -1.25,-1.25" style="fill-rule:nonzero;"/><path d="M304.563,540.334c-0.69,-0.001 -1.25,0.559 -1.25,1.249l0,3.978c0,0.69 0.56,1.25 1.25,1.25c0.69,0 1.25,-0.56 1.25,-1.25l0,-3.978c0,-0.69 -0.56,-1.25 -1.25,-1.25" style="fill-rule:nonzero;"/><path d="M317.567,404.904l-30.645,0c-3.228,0 -5.855,-2.627 -5.855,-5.855c0,-3.229 2.627,-5.855 5.855,-5.855l2.942,0l-0.522,-1.631c-0.285,-0.89 -0.429,-1.812 -0.429,-2.74c0,-4.949 4.026,-8.976 8.975,-8.976c3.326,0 6.365,1.829 7.929,4.774l0.685,1.289l1.169,-0.876c1.135,-0.852 2.48,-1.302 3.885,-1.302c3.581,0 6.494,2.914 6.494,6.495c0,0.289 -0.027,0.585 -0.07,0.884c-0.033,0.229 -0.073,0.459 -0.131,0.691l-0.312,1.254l1.263,0.272c0.134,0.028 0.257,0.081 0.387,0.119c0.337,0.097 0.658,0.223 0.966,0.376c0.849,0.422 1.573,1.037 2.124,1.79c0.714,0.978 1.144,2.166 1.144,3.436c0,3.228 -2.625,5.855 -5.854,5.855m0.062,-26.823c4.427,0.527 7.87,4.303 7.87,8.869c0,2.297 -0.883,4.383 -2.314,5.967c-0.181,-0.167 -0.354,-0.342 -0.55,-0.493c-0.453,-0.349 -0.956,-0.632 -1.481,-0.88c0.654,-1.403 1.019,-2.96 1.019,-4.594c0,-3.617 -1.764,-6.872 -4.544,-8.869m10.37,8.869c0,-6.304 -5.129,-11.433 -11.433,-11.433c-2.448,0 -5.933,1.463 -5.933,1.463c0,0 7.497,1.464 8.892,9.114c-1.499,-2.883 -4.502,-4.862 -7.969,-4.862c-1.492,0 -2.933,0.364 -4.232,1.064c-2.129,-3.082 -5.635,-4.949 -9.436,-4.949c-6.327,0 -11.475,5.148 -11.475,11.476c0,0.63 0.052,1.258 0.155,1.879c-4.443,0.185 -8.001,3.858 -8.001,8.347c0,4.607 3.749,8.355 8.355,8.355l30.645,0c4.606,0 8.354,-3.748 8.354,-8.355c0,-1.5 -0.428,-2.915 -1.146,-4.153c1.994,-2.058 3.224,-4.861 3.224,-7.946" style="fill-rule:nonzero;"/><path d="M317.921,268.115l-30.645,0c-3.228,0 -5.854,-2.626 -5.854,-5.854c0,-3.229 2.626,-5.855 5.854,-5.855l2.943,0l-0.523,-1.632c-0.285,-0.889 -0.429,-1.811 -0.429,-2.739c0,-4.949 4.027,-8.976 8.976,-8.976c3.325,0 6.364,1.829 7.929,4.773l0.686,1.289l1.167,-0.876c1.135,-0.851 2.478,-1.301 3.885,-1.301c1.549,0 2.973,0.547 4.09,1.456c0.658,0.535 1.212,1.195 1.62,1.945c0.501,0.921 0.785,1.975 0.785,3.094c0,0.515 -0.066,1.03 -0.202,1.574l-0.312,1.254l1.263,0.272c0.488,0.104 0.94,0.288 1.371,0.505c0.807,0.405 1.504,0.98 2.042,1.687c0.756,0.993 1.209,2.22 1.209,3.53c0,3.228 -2.626,5.854 -5.855,5.854m2.433,-26.7c0.807,0.415 1.549,0.954 2.199,1.603c1.671,1.671 2.591,3.892 2.591,6.254c0,2.312 -0.886,4.483 -2.488,6.141c-0.56,-0.39 -1.158,-0.732 -1.81,-0.977c0.04,-0.336 0.059,-0.669 0.059,-0.997c0,-1.958 -0.636,-3.767 -1.703,-5.246c1.138,-2.058 1.556,-4.456 1.152,-6.778m7.29,7.857c0,-3.03 -1.181,-5.879 -3.324,-8.021c-1.541,-1.542 -3.486,-2.6 -5.625,-3.06l-2.443,-0.526l1.045,2.27c0.942,2.047 0.91,4.36 0.051,6.356c-1.512,-1.154 -3.393,-1.847 -5.438,-1.847c-1.493,0 -2.933,0.364 -4.231,1.064c-2.13,-3.082 -5.636,-4.949 -9.436,-4.949c-6.328,0 -11.476,5.148 -11.476,11.476c0,0.63 0.052,1.258 0.155,1.879c-4.443,0.185 -8,3.858 -8,8.347c0,4.606 3.748,8.354 8.354,8.354l30.645,0c4.607,0 8.355,-3.748 8.355,-8.354c0,-1.913 -0.68,-3.698 -1.805,-5.133c2.043,-2.123 3.173,-4.9 3.173,-7.856" style="fill-rule:nonzero;"/><path d="M322.882,119.341c-0.962,-1.487 -2.372,-2.673 -4.072,-3.311c0.039,-0.335 0.058,-0.668 0.058,-0.997c0,-3.878 -2.471,-7.181 -5.917,-8.441c1.5,-1.632 3.644,-2.662 6.029,-2.662c4.521,0 8.2,3.679 8.2,8.2c0,3.11 -1.74,5.821 -4.298,7.211m-1.142,4.513c0,3.229 -2.626,5.855 -5.855,5.855l-30.644,0c-3.229,0 -5.855,-2.626 -5.855,-5.855c0,-3.228 2.626,-5.854 5.855,-5.854l2.942,0l-0.523,-1.632c-0.285,-0.89 -0.43,-1.812 -0.43,-2.739c0,-4.95 4.027,-8.976 8.976,-8.976c3.327,0 6.365,1.828 7.929,4.772l0.686,1.289l1.168,-0.876c0.865,-0.648 1.852,-1.06 2.896,-1.221c0.325,-0.05 0.655,-0.079 0.989,-0.079c0.568,0 1.116,0.08 1.641,0.218c2.788,0.73 4.853,3.264 4.853,6.277c0,0.511 -0.067,1.04 -0.201,1.574l-0.313,1.254l1.264,0.271c1.344,0.289 2.502,1.039 3.323,2.061c0.538,0.669 0.913,1.461 1.118,2.31c0.106,0.438 0.181,0.887 0.181,1.351m7.94,-11.724c0,-5.9 -4.8,-10.7 -10.7,-10.7c-3.643,0 -6.863,1.834 -8.796,4.623c-0.104,-0.003 -0.205,-0.015 -0.31,-0.015c-1.493,0 -2.934,0.364 -4.232,1.062c-2.13,-3.081 -5.635,-4.947 -9.436,-4.947c-6.328,0 -11.476,5.147 -11.476,11.476c0,0.629 0.053,1.257 0.156,1.878c-4.443,0.187 -8,3.86 -8,8.347c0,4.607 3.748,8.355 8.355,8.355l30.644,0c4.606,0 8.355,-3.748 8.355,-8.355c0,-0.772 -0.125,-1.519 -0.328,-2.237c3.423,-1.787 5.768,-5.365 5.768,-9.487" style="fill-rule:nonzero;"/><path d="M200.081,684.959c-3.281,0 -5.95,-2.669 -5.95,-5.95c0,-1.987 0.987,-3.835 2.639,-4.945l0.554,-0.372l0,-25.69c0,-1.521 1.236,-2.757 2.757,-2.757c1.521,0 2.757,1.236 2.757,2.757l0,25.69l0.554,0.372c1.653,1.111 2.64,2.958 2.64,4.945c0,3.281 -2.67,5.95 -5.951,5.95m5.257,-12.565l0,-24.392c0,-2.898 -2.358,-5.257 -5.257,-5.257c-2.899,0 -5.257,2.359 -5.257,5.257l0,24.392c-2.011,1.598 -3.193,4.024 -3.193,6.615c0,4.659 3.79,8.45 8.45,8.45c4.66,0 8.451,-3.791 8.451,-8.45c0,-2.591 -1.182,-5.017 -3.194,-6.615" style="fill-rule:nonzero;"/><path d="M202.581,675.273l-1.198,-0.804l0,-9.367l0,-5.614l0,-1.481c0,-0.718 -0.584,-1.303 -1.302,-1.303c-0.718,0 -1.302,0.585 -1.302,1.303l0,16.462l-1.198,0.804c-1.249,0.839 -1.995,2.235 -1.995,3.735c0,2.479 2.016,4.496 4.495,4.496c2.479,0 4.496,-2.017 4.496,-4.496c0,-1.5 -0.746,-2.896 -1.996,-3.735" style="fill-rule:nonzero;"/><path d="M207.814,541.736c-1.837,0 -3.642,-0.369 -5.319,-1.08c4.414,-2.601 7.24,-7.401 7.24,-12.625c0,-5.225 -2.826,-10.024 -7.24,-12.624c1.678,-0.712 3.482,-1.081 5.319,-1.081c7.557,0 13.705,6.148 13.705,13.705c0,7.557 -6.148,13.705 -13.705,13.705m0,-29.91c-3.113,0 -6.146,0.896 -8.772,2.592l-2.1,1.355l2.345,0.867c4.754,1.757 7.948,6.334 7.948,11.391c0,5.056 -3.194,9.634 -7.948,11.392l-2.345,0.867l2.1,1.355c2.625,1.695 5.658,2.591 8.772,2.591c8.936,0 16.205,-7.27 16.205,-16.205c0,-8.936 -7.269,-16.205 -16.205,-16.205" style="fill-rule:nonzero;"/><path d="M194.166,526.887c-0.294,0.287 -0.429,0.701 -0.359,1.106l0.1,0.584l-0.524,-0.275c-0.182,-0.096 -0.382,-0.144 -0.581,-0.144c-0.2,0 -0.4,0.048 -0.582,0.144l-0.523,0.275l0.1,-0.584c0.07,-0.405 -0.065,-0.819 -0.36,-1.106l-0.423,-0.412l0.585,-0.085c0.407,-0.06 0.759,-0.315 0.942,-0.685l0.261,-0.529l0.262,0.53c0.182,0.369 0.534,0.624 0.941,0.684l0.584,0.085l-0.423,0.412Zm2.216,1.332l1.766,-1.722c0.341,-0.332 0.464,-0.829 0.317,-1.282c-0.147,-0.452 -0.539,-0.782 -1.009,-0.85l-2.441,-0.355l-1.093,-2.212c-0.21,-0.426 -0.645,-0.696 -1.12,-0.696c-0.476,0 -0.91,0.27 -1.121,0.697l-1.092,2.211l-2.441,0.355c-0.471,0.068 -0.862,0.398 -1.009,0.85c-0.147,0.453 -0.025,0.95 0.316,1.282l1.767,1.722l-0.417,2.432c-0.081,0.468 0.112,0.942 0.497,1.221c0.385,0.282 0.895,0.317 1.316,0.096l2.184,-1.147l2.183,1.147c0.183,0.096 0.383,0.144 0.582,0.144c0.259,0 0.517,-0.08 0.735,-0.24c0.385,-0.279 0.577,-0.753 0.497,-1.221l-0.417,-2.432Z" style="fill-rule:nonzero;"/><path d="M180.807,535.963c-0.101,-0.025 -0.204,-0.038 -0.307,-0.038c-0.103,0 -0.206,0.013 -0.306,0.038c-0.014,-0.207 -0.079,-0.407 -0.189,-0.583c0.192,-0.077 0.363,-0.2 0.495,-0.359c0.133,0.159 0.304,0.283 0.496,0.359c-0.11,0.176 -0.175,0.376 -0.189,0.583m2.98,-2.669l-1.497,-0.217l-0.669,-1.355c-0.21,-0.427 -0.645,-0.697 -1.121,-0.697c-0.475,0 -0.91,0.27 -1.12,0.696l-0.67,1.356l-1.496,0.217c-0.471,0.068 -0.862,0.398 -1.01,0.851c-0.147,0.453 -0.024,0.949 0.317,1.281l1.082,1.057l-0.255,1.49c-0.081,0.469 0.112,0.942 0.497,1.221c0.384,0.281 0.894,0.316 1.316,0.096l1.339,-0.703l1.339,0.703c0.183,0.096 0.383,0.144 0.582,0.144c0.259,0 0.517,-0.08 0.735,-0.24c0.384,-0.279 0.577,-0.752 0.497,-1.221l-0.256,-1.49l1.083,-1.057c0.341,-0.332 0.463,-0.828 0.316,-1.281c-0.147,-0.453 -0.538,-0.783 -1.009,-0.851" style="fill-rule:nonzero;"/><path d="M195.627,404.651c0.208,0.01 0.418,0.015 0.627,0.015c7.558,0 13.706,-6.149 13.706,-13.705c0,-7.557 -6.148,-13.706 -13.706,-13.706c-0.209,0 -0.419,0.005 -0.627,0.015c4.982,2.607 8.277,7.811 8.277,13.691c0,5.879 -3.295,11.084 -8.277,13.69m0.627,2.515c-1.973,0 -3.906,-0.356 -5.745,-1.057l-4.209,-1.605l4.434,-0.793c6.183,-1.107 10.67,-6.468 10.67,-12.75c0,-6.283 -4.487,-11.644 -10.67,-12.75l-4.434,-0.793l4.209,-1.606c1.839,-0.701 3.772,-1.057 5.745,-1.057c8.936,0 16.206,7.27 16.206,16.206c0,8.935 -7.27,16.205 -16.206,16.205" style="fill-rule:nonzero;"/><path d="M191.332,266.514c1.678,0.712 3.482,1.081 5.319,1.081c7.557,0 13.705,-6.148 13.705,-13.705c0,-7.557 -6.148,-13.705 -13.706,-13.705c-1.837,0 -3.641,0.369 -5.319,1.08c4.414,2.601 7.242,7.401 7.242,12.625c0,5.225 -2.827,10.024 -7.242,12.624m5.319,3.581c-3.112,0 -6.144,-0.896 -8.772,-2.592l-2.101,-1.355l2.346,-0.867c4.754,-1.757 7.95,-6.334 7.95,-11.391c0,-5.056 -3.196,-9.634 -7.95,-11.392l-2.345,-0.867l2.1,-1.355c2.626,-1.696 5.659,-2.591 8.772,-2.591c8.935,0 16.206,7.269 16.206,16.205c0,8.936 -7.27,16.205 -16.206,16.205" style="fill-rule:nonzero;"/><path d="M200.081,103.114c-7.557,0 -13.705,6.148 -13.705,13.706c0,7.557 6.148,13.705 13.705,13.705c7.557,0 13.705,-6.148 13.705,-13.705c0,-7.558 -6.148,-13.706 -13.705,-13.706m0,29.911c-8.936,0 -16.205,-7.269 -16.205,-16.205c0,-8.936 7.269,-16.206 16.205,-16.206c8.936,0 16.205,7.27 16.205,16.206c0,8.936 -7.269,16.205 -16.205,16.205" style="fill-rule:nonzero;"/><path d="M101.131,674.957c-1.948,1.948 -4.541,3.046 -7.304,3.094c-2.763,-0.048 -5.356,-1.146 -7.304,-3.094c-2.001,-2.001 -3.103,-4.661 -3.103,-7.491c0,-2.83 1.102,-5.49 3.103,-7.491l7.304,-7.305l7.304,7.305c2.001,2.001 3.103,4.661 3.103,7.491c0,2.83 -1.102,5.49 -3.103,7.491m1.768,-16.75l-9.072,-9.072l-9.071,9.072c-2.474,2.473 -3.836,5.761 -3.836,9.259c0,3.498 1.362,6.786 3.836,9.259c2.413,2.414 5.628,3.773 9.051,3.826l0.039,0c3.424,-0.053 6.639,-1.412 9.053,-3.826c2.473,-2.473 3.835,-5.761 3.835,-9.259c0,-3.498 -1.362,-6.786 -3.835,-9.259" style="fill-rule:nonzero;"/><circle cx="93.827" cy="527.837" r="7.213"/><path d="M93.827,538.037c-5.624,0 -10.2,-4.576 -10.2,-10.2c0,-5.624 4.576,-10.2 10.2,-10.2c5.625,0 10.2,4.576 10.2,10.2c0,5.624 -4.575,10.2 -10.2,10.2m21.398,-11.45l-8.761,0c-0.252,-2.565 -1.269,-4.909 -2.821,-6.798l4.456,-4.456c0.488,-0.488 0.488,-1.279 0,-1.768c-0.488,-0.488 -1.279,-0.488 -1.768,0l-4.456,4.456c-1.889,-1.552 -4.233,-2.569 -6.798,-2.821l0,-8.761c0,-0.69 -0.56,-1.25 -1.25,-1.25c-0.69,0 -1.25,0.56 -1.25,1.25l0,8.761c-2.565,0.252 -4.908,1.269 -6.798,2.821l-4.456,-4.456c-0.489,-0.488 -1.281,-0.488 -1.768,0c-0.488,0.489 -0.488,1.28 0,1.768l4.457,4.456c-1.552,1.889 -2.57,4.233 -2.821,6.798l-8.761,0c-0.691,0 -1.25,0.559 -1.25,1.25c0,0.69 0.559,1.25 1.25,1.25l8.761,0c0.251,2.565 1.269,4.908 2.821,6.798l-4.457,4.457c-0.488,0.488 -0.488,1.279 0,1.767c0.244,0.244 0.564,0.366 0.884,0.366c0.32,0 0.639,-0.122 0.884,-0.366l4.456,-4.456c1.89,1.552 4.233,2.569 6.798,2.821l0,8.76c0,0.691 0.56,1.25 1.25,1.25c0.69,0 1.25,-0.559 1.25,-1.25l0,-8.76c2.565,-0.252 4.909,-1.269 6.798,-2.821l4.456,4.456c0.245,0.244 0.564,0.366 0.884,0.366c0.32,0 0.64,-0.122 0.884,-0.366c0.488,-0.488 0.488,-1.279 0,-1.767l-4.456,-4.457c1.552,-1.89 2.569,-4.233 2.821,-6.798l8.761,0c0.69,0 1.25,-0.56 1.25,-1.25c0,-0.691 -0.56,-1.25 -1.25,-1.25" style="fill-rule:nonzero;"/><path d="M78.74,405.202c-0.69,0 -1.25,0.56 -1.25,1.25l0,7.955c0,0.691 0.56,1.25 1.25,1.25c0.69,0 1.25,-0.559 1.25,-1.25l0,-7.955c0,-0.69 -0.56,-1.25 -1.25,-1.25" style="fill-rule:nonzero;"/><path d="M89.558,405.202c-0.69,0 -1.25,0.56 -1.25,1.25l0,7.955c0,0.691 0.56,1.25 1.25,1.25c0.69,0 1.25,-0.559 1.25,-1.25l0,-7.955c0,-0.69 -0.56,-1.25 -1.25,-1.25" style="fill-rule:nonzero;"/><path d="M100.376,405.202c-0.69,0 -1.25,0.56 -1.25,1.25l0,1.989c0,0.691 0.56,1.25 1.25,1.25c0.69,0 1.25,-0.559 1.25,-1.25l0,-1.989c0,-0.69 -0.56,-1.25 -1.25,-1.25" style="fill-rule:nonzero;"/><path d="M100.376,410.662c-0.69,0 -1.25,0.578 -1.25,1.269c0,0.69 0.56,1.25 1.25,1.25c0.69,0 1.25,-0.56 1.25,-1.25l0,-0.038c0,-0.69 -0.56,-1.231 -1.25,-1.231" style="fill-rule:nonzero;"/><path d="M84.149,405.202c-0.69,0 -1.25,0.56 -1.25,1.25l0,1.989c0,0.691 0.56,1.25 1.25,1.25c0.69,0 1.25,-0.559 1.25,-1.25l0,-1.989c0,-0.69 -0.56,-1.25 -1.25,-1.25" style="fill-rule:nonzero;"/><path d="M84.149,410.662c-0.69,0 -1.25,0.578 -1.25,1.269c0,0.69 0.56,1.25 1.25,1.25c0.69,0 1.25,-0.56 1.25,-1.25l0,-0.038c0,-0.69 -0.56,-1.231 -1.25,-1.231" style="fill-rule:nonzero;"/><path d="M105.785,405.202c-0.69,0 -1.25,0.56 -1.25,1.25l0,3.978c0,0.69 0.56,1.25 1.25,1.25c0.69,0 1.25,-0.56 1.25,-1.25l0,-3.978c0,-0.69 -0.56,-1.25 -1.25,-1.25" style="fill-rule:nonzero;"/><path d="M94.967,405.202c-0.69,0 -1.25,0.56 -1.25,1.25l0,3.978c0,0.69 0.56,1.25 1.25,1.25c0.69,0 1.25,-0.56 1.25,-1.25l0,-3.978c0,-0.69 -0.56,-1.25 -1.25,-1.25" style="fill-rule:nonzero;"/><path d="M109.425,383.622c-0.975,-3.435 -3.938,-6.034 -7.564,-6.473c0.818,-1.793 2.619,-3.048 4.716,-3.048c2.862,0 5.19,2.328 5.19,5.19c0,1.81 -0.934,3.401 -2.342,4.331m3.219,11.272c0,3.228 -2.626,5.855 -5.854,5.855l-30.645,0c-3.228,0 -5.855,-2.627 -5.855,-5.855c0,-3.228 2.627,-5.856 5.855,-5.856l2.943,0l-0.523,-1.632c-0.286,-0.888 -0.43,-1.81 -0.43,-2.738c0,-4.95 4.027,-8.976 8.976,-8.976c3.326,0 6.364,1.829 7.928,4.774l0.685,1.288l1.169,-0.875c0.619,-0.464 1.303,-0.796 2.022,-1.014c0.6,-0.183 1.224,-0.287 1.863,-0.287c0.216,0 0.43,0.012 0.64,0.032c2.729,0.269 4.96,2.233 5.637,4.822c0.138,0.526 0.218,1.072 0.218,1.639c0,0.287 -0.027,0.582 -0.069,0.878c-0.034,0.231 -0.074,0.464 -0.133,0.699l-0.313,1.252l1.265,0.272c2.677,0.573 4.621,2.979 4.621,5.722m5.969,-16.853l-4.457,0c-0.195,-1.189 -0.661,-2.285 -1.337,-3.225l2.172,-2.172c0.489,-0.489 0.489,-1.28 0,-1.768c-0.488,-0.488 -1.279,-0.488 -1.767,0l-2.173,2.173c-0.94,-0.676 -2.036,-1.142 -3.224,-1.337l0,-4.457c0,-0.69 -0.56,-1.25 -1.25,-1.25c-0.691,0 -1.25,0.56 -1.25,1.25l0,4.457c-1.189,0.195 -2.285,0.661 -3.225,1.337l-2.172,-2.173c-0.488,-0.488 -1.279,-0.488 -1.768,0c-0.488,0.488 -0.488,1.279 0,1.768l2.173,2.172c-0.521,0.724 -0.918,1.541 -1.163,2.423c-0.915,0.166 -1.801,0.458 -2.625,0.902c-2.129,-3.082 -5.635,-4.949 -9.436,-4.949c-6.328,0 -11.476,5.148 -11.476,11.476c0,0.63 0.052,1.258 0.155,1.879c-4.443,0.186 -8,3.859 -8,8.348c0,4.606 3.748,8.354 8.355,8.354l30.645,0c4.606,0 8.354,-3.748 8.354,-8.354c0,-3.502 -2.222,-6.622 -5.43,-7.825c0.031,-0.265 0.04,-0.526 0.047,-0.787c0.456,-0.209 0.887,-0.461 1.291,-0.75l2.172,2.171c0.244,0.245 0.564,0.367 0.884,0.367c0.319,0 0.639,-0.123 0.883,-0.367c0.489,-0.488 0.489,-1.279 0,-1.767l-2.172,-2.173c0.676,-0.938 1.142,-2.034 1.337,-3.224l4.457,0c0.69,0 1.25,-0.56 1.25,-1.25c0,-0.69 -0.56,-1.25 -1.25,-1.25" style="fill-rule:nonzero;"/><path d="M109.425,252.82c-0.975,-3.434 -3.938,-6.034 -7.564,-6.472c0.818,-1.794 2.619,-3.049 4.716,-3.049c2.862,0 5.19,2.328 5.19,5.19c0,1.81 -0.934,3.402 -2.342,4.331m3.219,11.273c0,3.228 -2.626,5.854 -5.854,5.854l-30.645,0c-3.228,0 -5.855,-2.626 -5.855,-5.854c0,-3.229 2.627,-5.856 5.855,-5.856l2.943,0l-0.523,-1.632c-0.286,-0.889 -0.43,-1.811 -0.43,-2.739c0,-4.949 4.027,-8.976 8.976,-8.976c3.326,0 6.364,1.83 7.928,4.774l0.685,1.289l1.169,-0.876c0.619,-0.464 1.303,-0.796 2.022,-1.014c0.6,-0.182 1.224,-0.287 1.863,-0.287c0.216,0 0.43,0.012 0.64,0.033c2.729,0.268 4.96,2.233 5.637,4.822c0.138,0.525 0.218,1.072 0.218,1.639c0,0.287 -0.027,0.581 -0.069,0.878c-0.034,0.231 -0.074,0.463 -0.133,0.698l-0.313,1.253l1.265,0.272c2.677,0.573 4.621,2.979 4.621,5.722m5.969,-16.854l-4.457,0c-0.195,-1.189 -0.661,-2.285 -1.337,-3.225l2.172,-2.172c0.489,-0.489 0.489,-1.28 0,-1.768c-0.488,-0.488 -1.279,-0.488 -1.767,0l-2.173,2.173c-0.94,-0.676 -2.036,-1.142 -3.224,-1.337l0,-4.457c0,-0.69 -0.56,-1.25 -1.25,-1.25c-0.691,0 -1.25,0.56 -1.25,1.25l0,4.457c-1.189,0.195 -2.285,0.661 -3.225,1.337l-2.172,-2.173c-0.488,-0.488 -1.279,-0.488 -1.768,0c-0.488,0.488 -0.488,1.279 0,1.768l2.173,2.172c-0.521,0.724 -0.918,1.541 -1.163,2.423c-0.915,0.166 -1.801,0.458 -2.625,0.902c-2.129,-3.082 -5.635,-4.949 -9.436,-4.949c-6.328,0 -11.476,5.148 -11.476,11.476c0,0.63 0.052,1.258 0.155,1.879c-4.443,0.186 -8,3.859 -8,8.348c0,4.606 3.748,8.354 8.355,8.354l30.645,0c4.606,0 8.354,-3.748 8.354,-8.354c0,-3.502 -2.222,-6.622 -5.43,-7.825c0.031,-0.265 0.04,-0.526 0.047,-0.787c0.456,-0.209 0.887,-0.46 1.291,-0.75l2.172,2.172c0.244,0.244 0.564,0.366 0.884,0.366c0.319,0 0.639,-0.122 0.883,-0.366c0.489,-0.488 0.489,-1.279 0,-1.767l-2.172,-2.173c0.676,-0.939 1.142,-2.035 1.337,-3.224l4.457,0c0.69,0 1.25,-0.56 1.25,-1.25c0,-0.69 -0.56,-1.25 -1.25,-1.25" style="fill-rule:nonzero;"/><path d="M93.827,127.019c-5.624,0 -10.2,-4.575 -10.2,-10.199c0,-5.624 4.576,-10.2 10.2,-10.2c5.625,0 10.2,4.576 10.2,10.2c0,5.624 -4.575,10.199 -10.2,10.199m21.398,-11.449l-8.761,0c-0.252,-2.565 -1.269,-4.909 -2.821,-6.798l4.456,-4.457c0.488,-0.488 0.488,-1.279 0,-1.768c-0.488,-0.488 -1.279,-0.488 -1.768,0l-4.456,4.457c-1.889,-1.552 -4.233,-2.569 -6.798,-2.821l0,-8.762c0,-0.69 -0.56,-1.25 -1.25,-1.25c-0.69,0 -1.25,0.56 -1.25,1.25l0,8.762c-2.565,0.252 -4.908,1.269 -6.798,2.821l-4.456,-4.457c-0.489,-0.488 -1.28,-0.488 -1.768,0c-0.488,0.489 -0.488,1.28 0,1.768l4.457,4.457c-1.552,1.889 -2.57,4.233 -2.821,6.798l-8.761,0c-0.691,0 -1.25,0.559 -1.25,1.25c0,0.69 0.559,1.25 1.25,1.25l8.761,0c0.251,2.565 1.269,4.908 2.821,6.797l-4.457,4.457c-0.488,0.488 -0.488,1.279 0,1.767c0.244,0.244 0.564,0.366 0.884,0.366c0.32,0 0.639,-0.122 0.884,-0.366l4.456,-4.456c1.89,1.552 4.233,2.569 6.798,2.821l0,8.761c0,0.691 0.56,1.25 1.25,1.25c0.69,0 1.25,-0.559 1.25,-1.25l0,-8.761c2.565,-0.252 4.909,-1.269 6.798,-2.821l4.456,4.456c0.245,0.244 0.564,0.366 0.884,0.366c0.32,0 0.64,-0.122 0.884,-0.366c0.488,-0.488 0.488,-1.279 0,-1.767l-4.456,-4.457c1.552,-1.889 2.569,-4.232 2.821,-6.797l8.761,0c0.69,0 1.25,-0.56 1.25,-1.25c0,-0.691 -0.56,-1.25 -1.25,-1.25" style="fill-rule:nonzero;"/></g></svg>