<?xml version="1.0" encoding="UTF-8" standalone="no"?><!DOCTYPE svg PUBLIC "-//W3C//DTD SVG 1.1//EN" "http://www.w3.org/Graphics/SVG/1.1/DTD/svg11.dtd"><svg width="100%" height="100%" viewBox="0 0 17 45" version="1.1" xmlns="http://www.w3.org/2000/svg" xmlns:xlink="http://www.w3.org/1999/xlink" xml:space="preserve" xmlns:serif="http://www.serif.com/" style="fill-rule:evenodd;clip-rule:evenodd;stroke-linejoin:round;stroke-miterlimit:1.41421;"><g id="Icons"><path d="M8.45,42.214c-3.281,0 -5.95,-2.669 -5.95,-5.95c0,-1.987 0.987,-3.835 2.639,-4.945l0.554,-0.372l0,-25.69c0,-1.521 1.236,-2.757 2.757,-2.757c1.521,0 2.757,1.236 2.757,2.757l0,25.69l0.554,0.372c1.653,1.111 2.64,2.958 2.64,4.945c0,3.281 -2.67,5.95 -5.951,5.95m5.257,-12.565l0,-24.392c0,-2.898 -2.358,-5.257 -5.257,-5.257c-2.899,0 -5.257,2.359 -5.257,5.257l0,24.392c-2.011,1.598 -3.193,4.024 -3.193,6.615c0,4.659 3.79,8.45 8.45,8.45c4.66,0 8.451,-3.791 8.451,-8.45c0,-2.591 -1.182,-5.017 -3.194,-6.615" style="fill-rule:nonzero;"/><path d="M10.95,32.528l-1.198,-0.804l0,-9.367l0,-5.614l0,-1.481c0,-0.718 -0.584,-1.303 -1.302,-1.303c-0.718,0 -1.302,0.585 -1.302,1.303l0,16.462l-1.198,0.804c-1.249,0.839 -1.995,2.235 -1.995,3.735c0,2.479 2.016,4.496 4.495,4.496c2.479,0 4.496,-2.017 4.496,-4.496c0,-1.5 -0.746,-2.896 -1.996,-3.735" style="fill-rule:nonzero;"/></g></svg>