<?xml version="1.0" encoding="UTF-8" standalone="no"?><!DOCTYPE svg PUBLIC "-//W3C//DTD SVG 1.1//EN" "http://www.w3.org/Graphics/SVG/1.1/DTD/svg11.dtd"><svg width="100%" height="100%" viewBox="0 0 50 42" version="1.1" xmlns="http://www.w3.org/2000/svg" xmlns:xlink="http://www.w3.org/1999/xlink" xml:space="preserve" xmlns:serif="http://www.serif.com/" style="fill-rule:evenodd;clip-rule:evenodd;stroke-linejoin:round;stroke-miterlimit:1.41421;"><path d="M19.505,19.582c-0.69,0 -1.25,0.56 -1.25,1.25c0,0.69 0.56,1.25 1.25,1.25l18.926,0c0.69,0 1.25,-0.56 1.25,-1.25c0,-0.69 -0.56,-1.25 -1.25,-1.25l-18.926,0Z" style="fill-rule:nonzero;"/><path d="M48.7,19.582l-4.822,0c-0.691,0 -1.25,0.56 -1.25,1.25c0,0.69 0.559,1.25 1.25,1.25l4.822,0c0.69,0 1.25,-0.56 1.25,-1.25c0,-0.69 -0.56,-1.25 -1.25,-1.25" style="fill-rule:nonzero;"/><path d="M35.306,14.96c0,0.69 0.56,1.25 1.25,1.25l4.822,0c0.691,0 1.25,-0.56 1.25,-1.25c0,-0.69 -0.559,-1.25 -1.25,-1.25l-4.822,0c-0.69,0 -1.25,0.56 -1.25,1.25" style="fill-rule:nonzero;"/><path d="M30.889,10.605l4.822,0c0.691,0 1.25,-0.56 1.25,-1.25c0,-0.69 -0.559,-1.25 -1.25,-1.25l-4.822,0c-0.69,0 -1.25,0.56 -1.25,1.25c0,0.69 0.56,1.25 1.25,1.25" style="fill-rule:nonzero;"/><path d="M44.465,25.351l-25.258,0c-0.001,0 -0.002,0.001 -0.004,0.001c-0.031,0 -0.062,-0.001 -0.092,-0.001c-3.053,0 -5.937,1.467 -7.732,3.938c-2.556,3.518 -1.772,8.461 1.747,11.018c2.923,2.123 7.036,1.475 9.163,-1.452c1.782,-2.453 1.237,-5.899 -1.217,-7.681c-2.074,-1.506 -4.987,-1.045 -6.493,1.03c-1.286,1.771 -0.891,4.257 0.879,5.543c0.651,0.473 1.443,0.708 2.248,0.646c0.689,-0.048 1.208,-0.645 1.16,-1.334c-0.047,-0.688 -0.625,-1.205 -1.334,-1.16c-0.143,0.015 -0.379,-0.011 -0.606,-0.175c-0.654,-0.476 -0.8,-1.396 -0.324,-2.052c0.695,-0.958 2.041,-1.173 3.002,-0.475c1.337,0.971 1.634,2.85 0.663,4.188c-1.316,1.811 -3.863,2.216 -5.672,0.899c-2.403,-1.746 -2.939,-5.122 -1.192,-7.527c1.34,-1.845 3.491,-2.9 5.79,-2.905l0.014,0c0.002,0 0.003,-0.001 0.005,-0.001l25.253,0c0.69,0 1.25,-0.56 1.25,-1.25c0,-0.69 -0.56,-1.25 -1.25,-1.25" style="fill-rule:nonzero;"/><path d="M30.704,16.21c0.69,0 1.25,-0.56 1.25,-1.25c0,-0.69 -0.56,-1.25 -1.25,-1.25l-21.368,0c-0.002,0 -0.003,-0.001 -0.005,-0.001c-0.032,0.003 -0.064,0.002 -0.097,0.001c-2.255,0 -4.384,-1.083 -5.708,-2.906c-1.746,-2.404 -1.211,-5.781 1.193,-7.528c0.877,-0.636 1.952,-0.894 3.022,-0.724c1.071,0.17 2.013,0.747 2.65,1.624c0.971,1.338 0.673,3.217 -0.665,4.189c-0.958,0.696 -2.304,0.482 -3.001,-0.476c-0.474,-0.655 -0.33,-1.574 0.323,-2.051c0.001,0 0.002,-0.001 0.003,-0.001c0.103,-0.075 0.217,-0.127 0.341,-0.155c0.672,-0.153 1.094,-0.823 0.941,-1.496c-0.132,-0.58 -0.648,-0.973 -1.218,-0.973c-0.092,0 -0.184,0.01 -0.278,0.031c-0.454,0.104 -0.877,0.295 -1.255,0.57c-0.002,0.001 -0.003,0.003 -0.005,0.005c-1.766,1.287 -2.159,3.77 -0.875,5.538c1.508,2.075 4.421,2.536 6.494,1.031c2.453,-1.783 2.999,-5.229 1.218,-7.681c-1.03,-1.418 -2.551,-2.35 -4.281,-2.624c-0.348,-0.056 -0.697,-0.083 -1.041,-0.083c-1.374,0 -2.709,0.432 -3.842,1.254c-3.52,2.558 -4.303,7.5 -1.747,11.018c1.795,2.471 4.679,3.938 7.731,3.938c0.031,0 0.062,-0.001 0.093,-0.001c0.001,0 0.003,0.001 0.004,0.001l21.373,0Z" style="fill-rule:nonzero;"/></svg>